<mxfile host="Electron" modified="2023-09-19T05:50:31.448Z" agent="Mozilla/5.0 (Windows NT 10.0; Win64; x64) AppleWebKit/537.36 (KHTML, like Gecko) draw.io/21.2.8 Chrome/112.0.5615.165 Electron/24.2.0 Safari/537.36" etag="EFYs4-4HgHSwb9VAHpJv" version="21.2.8" type="device">
  <diagram name="第 1 页" id="E0OqM58wUucWfDKx6ohA">
    <mxGraphModel dx="774" dy="460" grid="0" gridSize="10" guides="1" tooltips="1" connect="1" arrows="1" fold="1" page="1" pageScale="1" pageWidth="3300" pageHeight="4681" math="0" shadow="0">
      <root>
        <mxCell id="0" />
        <mxCell id="1" parent="0" />
        <mxCell id="Z5YbvmB-cCHq1s_C08UM-1" value="" style="rounded=0;whiteSpace=wrap;html=1;fillColor=#fad7ac;strokeColor=#b46504;" parent="1" vertex="1">
          <mxGeometry x="130" y="250" width="40" height="40" as="geometry" />
        </mxCell>
        <mxCell id="Z5YbvmB-cCHq1s_C08UM-23" style="edgeStyle=orthogonalEdgeStyle;rounded=0;orthogonalLoop=1;jettySize=auto;html=1;endArrow=none;endFill=0;" parent="1" source="Z5YbvmB-cCHq1s_C08UM-2" edge="1">
          <mxGeometry relative="1" as="geometry">
            <mxPoint x="190" y="350" as="targetPoint" />
          </mxGeometry>
        </mxCell>
        <mxCell id="Z5YbvmB-cCHq1s_C08UM-2" value="" style="rounded=0;whiteSpace=wrap;html=1;fillColor=#fad7ac;strokeColor=#b46504;" parent="1" vertex="1">
          <mxGeometry x="170" y="250" width="40" height="40" as="geometry" />
        </mxCell>
        <mxCell id="Z5YbvmB-cCHq1s_C08UM-35" style="edgeStyle=orthogonalEdgeStyle;rounded=0;orthogonalLoop=1;jettySize=auto;html=1;" parent="1" source="Z5YbvmB-cCHq1s_C08UM-3" edge="1">
          <mxGeometry relative="1" as="geometry">
            <mxPoint x="560" y="200" as="targetPoint" />
            <Array as="points">
              <mxPoint x="230" y="200" />
              <mxPoint x="560" y="200" />
            </Array>
          </mxGeometry>
        </mxCell>
        <mxCell id="Z5YbvmB-cCHq1s_C08UM-3" value="" style="rounded=0;whiteSpace=wrap;html=1;fillColor=#fff2cc;strokeColor=#d6b656;" parent="1" vertex="1">
          <mxGeometry x="210" y="250" width="40" height="40" as="geometry" />
        </mxCell>
        <mxCell id="Z5YbvmB-cCHq1s_C08UM-4" value="" style="rounded=0;whiteSpace=wrap;html=1;fillColor=#b0e3e6;strokeColor=#0e8088;" parent="1" vertex="1">
          <mxGeometry x="250" y="250" width="40" height="40" as="geometry" />
        </mxCell>
        <mxCell id="Z5YbvmB-cCHq1s_C08UM-5" value="" style="rounded=0;whiteSpace=wrap;html=1;fillColor=#b0e3e6;strokeColor=#0e8088;" parent="1" vertex="1">
          <mxGeometry x="290" y="250" width="40" height="40" as="geometry" />
        </mxCell>
        <mxCell id="Z5YbvmB-cCHq1s_C08UM-25" style="edgeStyle=orthogonalEdgeStyle;rounded=0;orthogonalLoop=1;jettySize=auto;html=1;endArrow=none;endFill=0;" parent="1" source="Z5YbvmB-cCHq1s_C08UM-6" edge="1">
          <mxGeometry relative="1" as="geometry">
            <mxPoint x="350" y="350" as="targetPoint" />
          </mxGeometry>
        </mxCell>
        <mxCell id="Z5YbvmB-cCHq1s_C08UM-6" value="" style="rounded=0;whiteSpace=wrap;html=1;fillColor=#b0e3e6;strokeColor=#0e8088;" parent="1" vertex="1">
          <mxGeometry x="330" y="250" width="40" height="40" as="geometry" />
        </mxCell>
        <mxCell id="Z5YbvmB-cCHq1s_C08UM-7" value="" style="rounded=0;whiteSpace=wrap;html=1;fillColor=#b0e3e6;strokeColor=#0e8088;" parent="1" vertex="1">
          <mxGeometry x="370" y="250" width="40" height="40" as="geometry" />
        </mxCell>
        <mxCell id="Z5YbvmB-cCHq1s_C08UM-33" style="edgeStyle=orthogonalEdgeStyle;rounded=0;orthogonalLoop=1;jettySize=auto;html=1;endArrow=none;endFill=0;" parent="1" source="Z5YbvmB-cCHq1s_C08UM-8" edge="1">
          <mxGeometry relative="1" as="geometry">
            <mxPoint x="560" y="200" as="targetPoint" />
            <Array as="points">
              <mxPoint x="430" y="200" />
              <mxPoint x="560" y="200" />
            </Array>
          </mxGeometry>
        </mxCell>
        <mxCell id="Z5YbvmB-cCHq1s_C08UM-8" value="" style="rounded=0;whiteSpace=wrap;html=1;fillColor=#fff2cc;strokeColor=#d6b656;" parent="1" vertex="1">
          <mxGeometry x="410" y="250" width="40" height="40" as="geometry" />
        </mxCell>
        <mxCell id="Z5YbvmB-cCHq1s_C08UM-27" style="edgeStyle=orthogonalEdgeStyle;rounded=0;orthogonalLoop=1;jettySize=auto;html=1;endArrow=none;endFill=0;" parent="1" source="Z5YbvmB-cCHq1s_C08UM-9" edge="1">
          <mxGeometry relative="1" as="geometry">
            <mxPoint x="470" y="350" as="targetPoint" />
          </mxGeometry>
        </mxCell>
        <mxCell id="Z5YbvmB-cCHq1s_C08UM-9" value="" style="rounded=0;whiteSpace=wrap;html=1;fillColor=#d0cee2;strokeColor=#56517e;" parent="1" vertex="1">
          <mxGeometry x="450" y="250" width="40" height="40" as="geometry" />
        </mxCell>
        <mxCell id="Z5YbvmB-cCHq1s_C08UM-34" style="edgeStyle=orthogonalEdgeStyle;rounded=0;orthogonalLoop=1;jettySize=auto;html=1;endArrow=none;endFill=0;" parent="1" source="Z5YbvmB-cCHq1s_C08UM-10" edge="1">
          <mxGeometry relative="1" as="geometry">
            <mxPoint x="560" y="200" as="targetPoint" />
            <Array as="points">
              <mxPoint x="510" y="200" />
              <mxPoint x="560" y="200" />
            </Array>
          </mxGeometry>
        </mxCell>
        <mxCell id="Z5YbvmB-cCHq1s_C08UM-10" value="" style="rounded=0;whiteSpace=wrap;html=1;fillColor=#fff2cc;strokeColor=#d6b656;" parent="1" vertex="1">
          <mxGeometry x="490" y="250" width="40" height="40" as="geometry" />
        </mxCell>
        <mxCell id="Z5YbvmB-cCHq1s_C08UM-11" value="" style="rounded=0;whiteSpace=wrap;html=1;fillColor=#cce5ff;strokeColor=#36393d;" parent="1" vertex="1">
          <mxGeometry x="530" y="250" width="40" height="40" as="geometry" />
        </mxCell>
        <mxCell id="Z5YbvmB-cCHq1s_C08UM-12" value="" style="rounded=0;whiteSpace=wrap;html=1;fillColor=#cce5ff;strokeColor=#36393d;" parent="1" vertex="1">
          <mxGeometry x="570" y="250" width="40" height="40" as="geometry" />
        </mxCell>
        <mxCell id="Z5YbvmB-cCHq1s_C08UM-13" value="" style="rounded=0;whiteSpace=wrap;html=1;fillColor=#cce5ff;strokeColor=#36393d;" parent="1" vertex="1">
          <mxGeometry x="610" y="250" width="40" height="40" as="geometry" />
        </mxCell>
        <mxCell id="Z5YbvmB-cCHq1s_C08UM-29" style="edgeStyle=orthogonalEdgeStyle;rounded=0;orthogonalLoop=1;jettySize=auto;html=1;endArrow=none;endFill=0;" parent="1" source="Z5YbvmB-cCHq1s_C08UM-14" edge="1">
          <mxGeometry relative="1" as="geometry">
            <mxPoint x="670" y="350" as="targetPoint" />
          </mxGeometry>
        </mxCell>
        <mxCell id="Z5YbvmB-cCHq1s_C08UM-14" value="" style="rounded=0;whiteSpace=wrap;html=1;fillColor=#cce5ff;strokeColor=#36393d;" parent="1" vertex="1">
          <mxGeometry x="650" y="250" width="40" height="40" as="geometry" />
        </mxCell>
        <mxCell id="Z5YbvmB-cCHq1s_C08UM-15" value="" style="rounded=0;whiteSpace=wrap;html=1;fillColor=#cce5ff;strokeColor=#36393d;" parent="1" vertex="1">
          <mxGeometry x="690" y="250" width="40" height="40" as="geometry" />
        </mxCell>
        <mxCell id="Z5YbvmB-cCHq1s_C08UM-16" value="" style="rounded=0;whiteSpace=wrap;html=1;fillColor=#cce5ff;strokeColor=#36393d;" parent="1" vertex="1">
          <mxGeometry x="730" y="250" width="40" height="40" as="geometry" />
        </mxCell>
        <mxCell id="Z5YbvmB-cCHq1s_C08UM-31" style="edgeStyle=orthogonalEdgeStyle;rounded=0;orthogonalLoop=1;jettySize=auto;html=1;endArrow=none;endFill=0;" parent="1" source="Z5YbvmB-cCHq1s_C08UM-17" edge="1">
          <mxGeometry relative="1" as="geometry">
            <mxPoint x="560" y="200" as="targetPoint" />
            <Array as="points">
              <mxPoint x="110" y="200" />
              <mxPoint x="560" y="200" />
            </Array>
          </mxGeometry>
        </mxCell>
        <mxCell id="Z5YbvmB-cCHq1s_C08UM-17" value="" style="rounded=0;whiteSpace=wrap;html=1;fillColor=#fff2cc;strokeColor=#d6b656;" parent="1" vertex="1">
          <mxGeometry x="90" y="250" width="40" height="40" as="geometry" />
        </mxCell>
        <mxCell id="Z5YbvmB-cCHq1s_C08UM-18" value="" style="rounded=0;whiteSpace=wrap;html=1;fillColor=#cce5ff;strokeColor=#36393d;" parent="1" vertex="1">
          <mxGeometry x="770" y="250" width="40" height="40" as="geometry" />
        </mxCell>
        <mxCell id="Z5YbvmB-cCHq1s_C08UM-19" value="" style="rounded=0;whiteSpace=wrap;html=1;fillColor=#cce5ff;strokeColor=#36393d;" parent="1" vertex="1">
          <mxGeometry x="810" y="250" width="40" height="40" as="geometry" />
        </mxCell>
        <mxCell id="Z5YbvmB-cCHq1s_C08UM-24" value="&lt;b style=&quot;font-size: 15px;&quot;&gt;&lt;font style=&quot;font-size: 15px;&quot;&gt;version&lt;/font&gt;&lt;/b&gt;" style="text;html=1;align=center;verticalAlign=middle;resizable=0;points=[];autosize=1;strokeColor=none;fillColor=none;fontSize=15;" parent="1" vertex="1">
          <mxGeometry x="150" y="350" width="80" height="30" as="geometry" />
        </mxCell>
        <mxCell id="Z5YbvmB-cCHq1s_C08UM-26" value="&lt;b style=&quot;font-size: 15px;&quot;&gt;&lt;font style=&quot;font-size: 15px;&quot;&gt;cmd&lt;/font&gt;&lt;/b&gt;" style="text;html=1;align=center;verticalAlign=middle;resizable=0;points=[];autosize=1;strokeColor=none;fillColor=none;fontSize=15;" parent="1" vertex="1">
          <mxGeometry x="325" y="350" width="50" height="30" as="geometry" />
        </mxCell>
        <mxCell id="Z5YbvmB-cCHq1s_C08UM-28" value="&lt;b style=&quot;font-size: 15px;&quot;&gt;&lt;font style=&quot;font-size: 15px;&quot;&gt;gender&lt;/font&gt;&lt;/b&gt;" style="text;html=1;align=center;verticalAlign=middle;resizable=0;points=[];autosize=1;strokeColor=none;fillColor=none;fontSize=15;" parent="1" vertex="1">
          <mxGeometry x="435" y="350" width="70" height="30" as="geometry" />
        </mxCell>
        <mxCell id="Z5YbvmB-cCHq1s_C08UM-30" value="&lt;b style=&quot;font-size: 15px;&quot;&gt;&lt;font style=&quot;font-size: 15px;&quot;&gt;name&lt;/font&gt;&lt;/b&gt;" style="text;html=1;align=center;verticalAlign=middle;resizable=0;points=[];autosize=1;strokeColor=none;fillColor=none;fontSize=15;" parent="1" vertex="1">
          <mxGeometry x="640" y="350" width="60" height="30" as="geometry" />
        </mxCell>
        <mxCell id="Z5YbvmB-cCHq1s_C08UM-36" value="&lt;font style=&quot;font-size: 18px;&quot;&gt;&lt;b style=&quot;&quot;&gt;len&lt;/b&gt;&lt;/font&gt;" style="text;html=1;align=center;verticalAlign=middle;resizable=0;points=[];autosize=1;strokeColor=none;fillColor=none;" parent="1" vertex="1">
          <mxGeometry x="560" y="180" width="50" height="40" as="geometry" />
        </mxCell>
        <mxCell id="Z5YbvmB-cCHq1s_C08UM-37" value="" style="rounded=0;whiteSpace=wrap;html=1;fillColor=#fad7ac;strokeColor=#b46504;" parent="1" vertex="1">
          <mxGeometry x="124" y="607" width="40" height="40" as="geometry" />
        </mxCell>
        <mxCell id="Z5YbvmB-cCHq1s_C08UM-38" value="" style="rounded=0;whiteSpace=wrap;html=1;fillColor=#fad7ac;strokeColor=#b46504;" parent="1" vertex="1">
          <mxGeometry x="164" y="607" width="40" height="40" as="geometry" />
        </mxCell>
        <mxCell id="Z5YbvmB-cCHq1s_C08UM-78" style="edgeStyle=orthogonalEdgeStyle;rounded=0;orthogonalLoop=1;jettySize=auto;html=1;fillColor=#e1d5e7;strokeColor=#9673a6;endArrow=none;endFill=0;" parent="1" source="Z5YbvmB-cCHq1s_C08UM-39" edge="1">
          <mxGeometry relative="1" as="geometry">
            <mxPoint x="692" y="524" as="targetPoint" />
            <Array as="points">
              <mxPoint x="264" y="524" />
              <mxPoint x="692" y="524" />
            </Array>
          </mxGeometry>
        </mxCell>
        <mxCell id="Z5YbvmB-cCHq1s_C08UM-39" value="" style="rounded=0;whiteSpace=wrap;html=1;fillColor=#fff2cc;strokeColor=#d6b656;" parent="1" vertex="1">
          <mxGeometry x="244" y="607" width="40" height="40" as="geometry" />
        </mxCell>
        <mxCell id="Z5YbvmB-cCHq1s_C08UM-40" value="" style="rounded=0;whiteSpace=wrap;html=1;fillColor=#b0e3e6;strokeColor=#0e8088;" parent="1" vertex="1">
          <mxGeometry x="284" y="607" width="40" height="40" as="geometry" />
        </mxCell>
        <mxCell id="Z5YbvmB-cCHq1s_C08UM-41" value="" style="rounded=0;whiteSpace=wrap;html=1;fillColor=#b0e3e6;strokeColor=#0e8088;" parent="1" vertex="1">
          <mxGeometry x="324" y="607" width="40" height="40" as="geometry" />
        </mxCell>
        <mxCell id="Z5YbvmB-cCHq1s_C08UM-42" value="" style="rounded=0;whiteSpace=wrap;html=1;fillColor=#b0e3e6;strokeColor=#0e8088;" parent="1" vertex="1">
          <mxGeometry x="364" y="607" width="40" height="40" as="geometry" />
        </mxCell>
        <mxCell id="Z5YbvmB-cCHq1s_C08UM-43" value="" style="rounded=0;whiteSpace=wrap;html=1;fillColor=#b0e3e6;strokeColor=#0e8088;" parent="1" vertex="1">
          <mxGeometry x="404" y="607" width="40" height="40" as="geometry" />
        </mxCell>
        <mxCell id="Z5YbvmB-cCHq1s_C08UM-79" style="edgeStyle=orthogonalEdgeStyle;rounded=0;orthogonalLoop=1;jettySize=auto;html=1;fillColor=#e1d5e7;strokeColor=#9673a6;endArrow=classic;endFill=1;" parent="1" source="Z5YbvmB-cCHq1s_C08UM-44" edge="1">
          <mxGeometry relative="1" as="geometry">
            <mxPoint x="699" y="524" as="targetPoint" />
            <Array as="points">
              <mxPoint x="504" y="524" />
              <mxPoint x="692" y="524" />
            </Array>
          </mxGeometry>
        </mxCell>
        <mxCell id="Z5YbvmB-cCHq1s_C08UM-44" value="" style="rounded=0;whiteSpace=wrap;html=1;fillColor=#fff2cc;strokeColor=#d6b656;" parent="1" vertex="1">
          <mxGeometry x="484" y="607" width="40" height="40" as="geometry" />
        </mxCell>
        <mxCell id="Z5YbvmB-cCHq1s_C08UM-45" value="" style="rounded=0;whiteSpace=wrap;html=1;fillColor=#d0cee2;strokeColor=#56517e;" parent="1" vertex="1">
          <mxGeometry x="524" y="607" width="40" height="40" as="geometry" />
        </mxCell>
        <mxCell id="Z5YbvmB-cCHq1s_C08UM-46" value="" style="rounded=0;whiteSpace=wrap;html=1;fillColor=#fff2cc;strokeColor=#d6b656;" parent="1" vertex="1">
          <mxGeometry x="604" y="607" width="40" height="40" as="geometry" />
        </mxCell>
        <mxCell id="Z5YbvmB-cCHq1s_C08UM-47" value="" style="rounded=0;whiteSpace=wrap;html=1;fillColor=#cce5ff;strokeColor=#36393d;" parent="1" vertex="1">
          <mxGeometry x="644" y="607" width="40" height="40" as="geometry" />
        </mxCell>
        <mxCell id="Z5YbvmB-cCHq1s_C08UM-48" value="" style="rounded=0;whiteSpace=wrap;html=1;fillColor=#cce5ff;strokeColor=#36393d;" parent="1" vertex="1">
          <mxGeometry x="684" y="607" width="40" height="40" as="geometry" />
        </mxCell>
        <mxCell id="Z5YbvmB-cCHq1s_C08UM-49" value="" style="rounded=0;whiteSpace=wrap;html=1;fillColor=#cce5ff;strokeColor=#36393d;" parent="1" vertex="1">
          <mxGeometry x="724" y="607" width="40" height="40" as="geometry" />
        </mxCell>
        <mxCell id="Z5YbvmB-cCHq1s_C08UM-50" value="" style="rounded=0;whiteSpace=wrap;html=1;fillColor=#cce5ff;strokeColor=#36393d;" parent="1" vertex="1">
          <mxGeometry x="764" y="607" width="40" height="40" as="geometry" />
        </mxCell>
        <mxCell id="Z5YbvmB-cCHq1s_C08UM-51" value="" style="rounded=0;whiteSpace=wrap;html=1;fillColor=#cce5ff;strokeColor=#36393d;" parent="1" vertex="1">
          <mxGeometry x="804" y="607" width="40" height="40" as="geometry" />
        </mxCell>
        <mxCell id="Z5YbvmB-cCHq1s_C08UM-52" value="" style="rounded=0;whiteSpace=wrap;html=1;fillColor=#cce5ff;strokeColor=#36393d;" parent="1" vertex="1">
          <mxGeometry x="844" y="607" width="40" height="40" as="geometry" />
        </mxCell>
        <mxCell id="Z5YbvmB-cCHq1s_C08UM-77" style="edgeStyle=orthogonalEdgeStyle;rounded=0;orthogonalLoop=1;jettySize=auto;html=1;endArrow=none;endFill=0;fillColor=#e1d5e7;strokeColor=#9673a6;" parent="1" source="Z5YbvmB-cCHq1s_C08UM-53" edge="1">
          <mxGeometry relative="1" as="geometry">
            <mxPoint x="682" y="524" as="targetPoint" />
            <Array as="points">
              <mxPoint x="104" y="524" />
              <mxPoint x="370" y="524" />
            </Array>
          </mxGeometry>
        </mxCell>
        <mxCell id="Z5YbvmB-cCHq1s_C08UM-53" value="" style="rounded=0;whiteSpace=wrap;html=1;fillColor=#fff2cc;strokeColor=#d6b656;" parent="1" vertex="1">
          <mxGeometry x="84" y="607" width="40" height="40" as="geometry" />
        </mxCell>
        <mxCell id="Z5YbvmB-cCHq1s_C08UM-54" value="" style="rounded=0;whiteSpace=wrap;html=1;fillColor=#cce5ff;strokeColor=#36393d;" parent="1" vertex="1">
          <mxGeometry x="884" y="607" width="40" height="40" as="geometry" />
        </mxCell>
        <mxCell id="Z5YbvmB-cCHq1s_C08UM-55" value="" style="rounded=0;whiteSpace=wrap;html=1;fillColor=#cce5ff;strokeColor=#36393d;" parent="1" vertex="1">
          <mxGeometry x="924" y="607" width="40" height="40" as="geometry" />
        </mxCell>
        <mxCell id="Z5YbvmB-cCHq1s_C08UM-63" style="edgeStyle=orthogonalEdgeStyle;rounded=0;orthogonalLoop=1;jettySize=auto;html=1;" parent="1" source="Z5YbvmB-cCHq1s_C08UM-56" edge="1">
          <mxGeometry relative="1" as="geometry">
            <mxPoint x="706" y="561.6000366210938" as="targetPoint" />
            <Array as="points">
              <mxPoint x="64" y="562" />
              <mxPoint x="675" y="562" />
            </Array>
          </mxGeometry>
        </mxCell>
        <mxCell id="Z5YbvmB-cCHq1s_C08UM-56" value="" style="rounded=0;whiteSpace=wrap;html=1;fillColor=#f8cecc;strokeColor=#b85450;" parent="1" vertex="1">
          <mxGeometry x="44" y="607" width="40" height="40" as="geometry" />
        </mxCell>
        <mxCell id="Z5YbvmB-cCHq1s_C08UM-68" style="edgeStyle=orthogonalEdgeStyle;rounded=0;orthogonalLoop=1;jettySize=auto;html=1;endArrow=none;endFill=0;" parent="1" source="Z5YbvmB-cCHq1s_C08UM-57" edge="1">
          <mxGeometry relative="1" as="geometry">
            <mxPoint x="705" y="562" as="targetPoint" />
            <Array as="points">
              <mxPoint x="224" y="562" />
              <mxPoint x="705" y="562" />
            </Array>
          </mxGeometry>
        </mxCell>
        <mxCell id="Z5YbvmB-cCHq1s_C08UM-57" value="" style="rounded=0;whiteSpace=wrap;html=1;fillColor=#f8cecc;strokeColor=#b85450;" parent="1" vertex="1">
          <mxGeometry x="204" y="607" width="40" height="40" as="geometry" />
        </mxCell>
        <mxCell id="Z5YbvmB-cCHq1s_C08UM-74" style="edgeStyle=orthogonalEdgeStyle;rounded=0;orthogonalLoop=1;jettySize=auto;html=1;endArrow=none;endFill=0;" parent="1" source="Z5YbvmB-cCHq1s_C08UM-58" edge="1">
          <mxGeometry relative="1" as="geometry">
            <mxPoint x="700" y="562" as="targetPoint" />
            <Array as="points">
              <mxPoint x="464" y="562" />
              <mxPoint x="617" y="562" />
            </Array>
          </mxGeometry>
        </mxCell>
        <mxCell id="Z5YbvmB-cCHq1s_C08UM-58" value="" style="rounded=0;whiteSpace=wrap;html=1;fillColor=#f8cecc;strokeColor=#b85450;" parent="1" vertex="1">
          <mxGeometry x="444" y="607" width="40" height="40" as="geometry" />
        </mxCell>
        <mxCell id="Z5YbvmB-cCHq1s_C08UM-73" style="edgeStyle=orthogonalEdgeStyle;rounded=0;orthogonalLoop=1;jettySize=auto;html=1;endArrow=none;endFill=0;" parent="1" source="Z5YbvmB-cCHq1s_C08UM-59" edge="1">
          <mxGeometry relative="1" as="geometry">
            <mxPoint x="697" y="562" as="targetPoint" />
            <Array as="points">
              <mxPoint x="584" y="562" />
            </Array>
          </mxGeometry>
        </mxCell>
        <mxCell id="Z5YbvmB-cCHq1s_C08UM-59" value="" style="rounded=0;whiteSpace=wrap;html=1;fillColor=#f8cecc;strokeColor=#b85450;" parent="1" vertex="1">
          <mxGeometry x="564" y="607" width="40" height="40" as="geometry" />
        </mxCell>
        <mxCell id="Z5YbvmB-cCHq1s_C08UM-75" value="&lt;font style=&quot;font-size: 16px;&quot;&gt;&lt;b&gt;Type&lt;/b&gt;&lt;/font&gt;" style="text;html=1;align=center;verticalAlign=middle;resizable=0;points=[];autosize=1;strokeColor=none;fillColor=none;" parent="1" vertex="1">
          <mxGeometry x="710" y="543" width="54" height="31" as="geometry" />
        </mxCell>
        <mxCell id="Z5YbvmB-cCHq1s_C08UM-81" style="edgeStyle=orthogonalEdgeStyle;rounded=0;orthogonalLoop=1;jettySize=auto;html=1;endArrow=none;endFill=0;fillColor=#e1d5e7;strokeColor=#9673a6;" parent="1" source="Z5YbvmB-cCHq1s_C08UM-46" edge="1">
          <mxGeometry relative="1" as="geometry">
            <mxPoint x="687" y="524" as="targetPoint" />
            <mxPoint x="644" y="627" as="sourcePoint" />
            <Array as="points">
              <mxPoint x="624" y="524" />
            </Array>
          </mxGeometry>
        </mxCell>
        <mxCell id="Z5YbvmB-cCHq1s_C08UM-82" value="&lt;font style=&quot;font-size: 18px;&quot;&gt;&lt;b style=&quot;&quot;&gt;len&lt;/b&gt;&lt;/font&gt;" style="text;html=1;align=center;verticalAlign=middle;resizable=0;points=[];autosize=1;strokeColor=none;fillColor=none;" parent="1" vertex="1">
          <mxGeometry x="714" y="499" width="50" height="40" as="geometry" />
        </mxCell>
        <mxCell id="Z5YbvmB-cCHq1s_C08UM-83" style="edgeStyle=orthogonalEdgeStyle;rounded=0;orthogonalLoop=1;jettySize=auto;html=1;endArrow=none;endFill=0;" parent="1" edge="1">
          <mxGeometry relative="1" as="geometry">
            <mxPoint x="186" y="709" as="targetPoint" />
            <mxPoint x="186" y="649" as="sourcePoint" />
          </mxGeometry>
        </mxCell>
        <mxCell id="Z5YbvmB-cCHq1s_C08UM-84" style="edgeStyle=orthogonalEdgeStyle;rounded=0;orthogonalLoop=1;jettySize=auto;html=1;endArrow=none;endFill=0;" parent="1" edge="1">
          <mxGeometry relative="1" as="geometry">
            <mxPoint x="346" y="709" as="targetPoint" />
            <mxPoint x="346" y="649" as="sourcePoint" />
          </mxGeometry>
        </mxCell>
        <mxCell id="Z5YbvmB-cCHq1s_C08UM-85" style="edgeStyle=orthogonalEdgeStyle;rounded=0;orthogonalLoop=1;jettySize=auto;html=1;endArrow=none;endFill=0;" parent="1" edge="1">
          <mxGeometry relative="1" as="geometry">
            <mxPoint x="550" y="709" as="targetPoint" />
            <mxPoint x="550" y="649" as="sourcePoint" />
          </mxGeometry>
        </mxCell>
        <mxCell id="Z5YbvmB-cCHq1s_C08UM-86" style="edgeStyle=orthogonalEdgeStyle;rounded=0;orthogonalLoop=1;jettySize=auto;html=1;endArrow=none;endFill=0;" parent="1" edge="1">
          <mxGeometry relative="1" as="geometry">
            <mxPoint x="666" y="709" as="targetPoint" />
            <mxPoint x="666" y="649" as="sourcePoint" />
          </mxGeometry>
        </mxCell>
        <mxCell id="Z5YbvmB-cCHq1s_C08UM-87" value="&lt;b style=&quot;font-size: 15px;&quot;&gt;&lt;font style=&quot;font-size: 15px;&quot;&gt;version&lt;/font&gt;&lt;/b&gt;" style="text;html=1;align=center;verticalAlign=middle;resizable=0;points=[];autosize=1;strokeColor=none;fillColor=none;fontSize=15;" parent="1" vertex="1">
          <mxGeometry x="146" y="709" width="80" height="30" as="geometry" />
        </mxCell>
        <mxCell id="Z5YbvmB-cCHq1s_C08UM-88" value="&lt;b style=&quot;font-size: 15px;&quot;&gt;&lt;font style=&quot;font-size: 15px;&quot;&gt;cmd&lt;/font&gt;&lt;/b&gt;" style="text;html=1;align=center;verticalAlign=middle;resizable=0;points=[];autosize=1;strokeColor=none;fillColor=none;fontSize=15;" parent="1" vertex="1">
          <mxGeometry x="321" y="709" width="50" height="30" as="geometry" />
        </mxCell>
        <mxCell id="Z5YbvmB-cCHq1s_C08UM-89" value="&lt;b style=&quot;font-size: 15px;&quot;&gt;&lt;font style=&quot;font-size: 15px;&quot;&gt;gender&lt;/font&gt;&lt;/b&gt;" style="text;html=1;align=center;verticalAlign=middle;resizable=0;points=[];autosize=1;strokeColor=none;fillColor=none;fontSize=15;" parent="1" vertex="1">
          <mxGeometry x="515" y="709" width="70" height="30" as="geometry" />
        </mxCell>
        <mxCell id="Z5YbvmB-cCHq1s_C08UM-90" value="&lt;b style=&quot;font-size: 15px;&quot;&gt;&lt;font style=&quot;font-size: 15px;&quot;&gt;name&lt;/font&gt;&lt;/b&gt;" style="text;html=1;align=center;verticalAlign=middle;resizable=0;points=[];autosize=1;strokeColor=none;fillColor=none;fontSize=15;" parent="1" vertex="1">
          <mxGeometry x="636" y="709" width="60" height="30" as="geometry" />
        </mxCell>
        <mxCell id="Z5YbvmB-cCHq1s_C08UM-132" style="edgeStyle=orthogonalEdgeStyle;rounded=0;orthogonalLoop=1;jettySize=auto;html=1;fillColor=#d5e8d4;strokeColor=#82b366;" parent="1" source="Z5YbvmB-cCHq1s_C08UM-91" edge="1">
          <mxGeometry relative="1" as="geometry">
            <mxPoint x="619" y="851" as="targetPoint" />
            <Array as="points">
              <mxPoint x="135" y="851" />
              <mxPoint x="614" y="851" />
            </Array>
          </mxGeometry>
        </mxCell>
        <mxCell id="Z5YbvmB-cCHq1s_C08UM-91" value="" style="rounded=0;whiteSpace=wrap;html=1;fillColor=#fad7ac;strokeColor=#b46504;" parent="1" vertex="1">
          <mxGeometry x="115" y="896" width="40" height="40" as="geometry" />
        </mxCell>
        <mxCell id="Z5YbvmB-cCHq1s_C08UM-92" value="" style="rounded=0;whiteSpace=wrap;html=1;fillColor=#fad7ac;strokeColor=#b46504;" parent="1" vertex="1">
          <mxGeometry x="155" y="896" width="40" height="40" as="geometry" />
        </mxCell>
        <mxCell id="Z5YbvmB-cCHq1s_C08UM-95" value="" style="rounded=0;whiteSpace=wrap;html=1;fillColor=#b0e3e6;strokeColor=#0e8088;" parent="1" vertex="1">
          <mxGeometry x="235" y="896" width="40" height="40" as="geometry" />
        </mxCell>
        <mxCell id="Z5YbvmB-cCHq1s_C08UM-96" value="" style="rounded=0;whiteSpace=wrap;html=1;fillColor=#b0e3e6;strokeColor=#0e8088;" parent="1" vertex="1">
          <mxGeometry x="275" y="896" width="40" height="40" as="geometry" />
        </mxCell>
        <mxCell id="Z5YbvmB-cCHq1s_C08UM-97" value="" style="rounded=0;whiteSpace=wrap;html=1;fillColor=#b0e3e6;strokeColor=#0e8088;" parent="1" vertex="1">
          <mxGeometry x="315" y="896" width="40" height="40" as="geometry" />
        </mxCell>
        <mxCell id="Z5YbvmB-cCHq1s_C08UM-98" value="" style="rounded=0;whiteSpace=wrap;html=1;fillColor=#b0e3e6;strokeColor=#0e8088;" parent="1" vertex="1">
          <mxGeometry x="355" y="896" width="40" height="40" as="geometry" />
        </mxCell>
        <mxCell id="Z5YbvmB-cCHq1s_C08UM-101" value="" style="rounded=0;whiteSpace=wrap;html=1;fillColor=#d0cee2;strokeColor=#56517e;" parent="1" vertex="1">
          <mxGeometry x="435" y="896" width="40" height="40" as="geometry" />
        </mxCell>
        <mxCell id="Z5YbvmB-cCHq1s_C08UM-102" value="" style="rounded=0;whiteSpace=wrap;html=1;fillColor=#fff2cc;strokeColor=#d6b656;" parent="1" vertex="1">
          <mxGeometry x="515" y="896" width="40" height="40" as="geometry" />
        </mxCell>
        <mxCell id="Z5YbvmB-cCHq1s_C08UM-103" value="" style="rounded=0;whiteSpace=wrap;html=1;fillColor=#cce5ff;strokeColor=#36393d;" parent="1" vertex="1">
          <mxGeometry x="555" y="896" width="40" height="40" as="geometry" />
        </mxCell>
        <mxCell id="Z5YbvmB-cCHq1s_C08UM-104" value="" style="rounded=0;whiteSpace=wrap;html=1;fillColor=#cce5ff;strokeColor=#36393d;" parent="1" vertex="1">
          <mxGeometry x="595" y="896" width="40" height="40" as="geometry" />
        </mxCell>
        <mxCell id="Z5YbvmB-cCHq1s_C08UM-105" value="" style="rounded=0;whiteSpace=wrap;html=1;fillColor=#cce5ff;strokeColor=#36393d;" parent="1" vertex="1">
          <mxGeometry x="635" y="896" width="40" height="40" as="geometry" />
        </mxCell>
        <mxCell id="Z5YbvmB-cCHq1s_C08UM-106" value="" style="rounded=0;whiteSpace=wrap;html=1;fillColor=#cce5ff;strokeColor=#36393d;" parent="1" vertex="1">
          <mxGeometry x="675" y="896" width="40" height="40" as="geometry" />
        </mxCell>
        <mxCell id="Z5YbvmB-cCHq1s_C08UM-107" value="" style="rounded=0;whiteSpace=wrap;html=1;fillColor=#cce5ff;strokeColor=#36393d;" parent="1" vertex="1">
          <mxGeometry x="715" y="896" width="40" height="40" as="geometry" />
        </mxCell>
        <mxCell id="Z5YbvmB-cCHq1s_C08UM-108" value="" style="rounded=0;whiteSpace=wrap;html=1;fillColor=#cce5ff;strokeColor=#36393d;" parent="1" vertex="1">
          <mxGeometry x="755" y="896" width="40" height="40" as="geometry" />
        </mxCell>
        <mxCell id="Z5YbvmB-cCHq1s_C08UM-111" value="" style="rounded=0;whiteSpace=wrap;html=1;fillColor=#cce5ff;strokeColor=#36393d;" parent="1" vertex="1">
          <mxGeometry x="795" y="896" width="40" height="40" as="geometry" />
        </mxCell>
        <mxCell id="Z5YbvmB-cCHq1s_C08UM-112" value="" style="rounded=0;whiteSpace=wrap;html=1;fillColor=#cce5ff;strokeColor=#36393d;" parent="1" vertex="1">
          <mxGeometry x="835" y="896" width="40" height="40" as="geometry" />
        </mxCell>
        <mxCell id="Z5YbvmB-cCHq1s_C08UM-114" value="" style="rounded=0;whiteSpace=wrap;html=1;fillColor=#f8cecc;strokeColor=#b85450;" parent="1" vertex="1">
          <mxGeometry x="75" y="896" width="40" height="40" as="geometry" />
        </mxCell>
        <mxCell id="Z5YbvmB-cCHq1s_C08UM-115" style="edgeStyle=orthogonalEdgeStyle;rounded=0;orthogonalLoop=1;jettySize=auto;html=1;endArrow=none;endFill=0;fillColor=#d5e8d4;strokeColor=#82b366;" parent="1" source="Z5YbvmB-cCHq1s_C08UM-116" edge="1">
          <mxGeometry relative="1" as="geometry">
            <mxPoint x="616" y="851" as="targetPoint" />
            <Array as="points">
              <mxPoint x="215" y="851" />
            </Array>
          </mxGeometry>
        </mxCell>
        <mxCell id="Z5YbvmB-cCHq1s_C08UM-116" value="" style="rounded=0;whiteSpace=wrap;html=1;fillColor=#f8cecc;strokeColor=#b85450;" parent="1" vertex="1">
          <mxGeometry x="195" y="896" width="40" height="40" as="geometry" />
        </mxCell>
        <mxCell id="Z5YbvmB-cCHq1s_C08UM-117" style="edgeStyle=orthogonalEdgeStyle;rounded=0;orthogonalLoop=1;jettySize=auto;html=1;endArrow=none;endFill=0;fillColor=#d5e8d4;strokeColor=#82b366;" parent="1" source="Z5YbvmB-cCHq1s_C08UM-118" edge="1">
          <mxGeometry relative="1" as="geometry">
            <mxPoint x="611" y="851" as="targetPoint" />
            <Array as="points">
              <mxPoint x="375" y="851" />
              <mxPoint x="528" y="851" />
            </Array>
          </mxGeometry>
        </mxCell>
        <mxCell id="Z5YbvmB-cCHq1s_C08UM-118" value="" style="rounded=0;whiteSpace=wrap;html=1;fillColor=#f8cecc;strokeColor=#b85450;" parent="1" vertex="1">
          <mxGeometry x="395" y="896" width="40" height="40" as="geometry" />
        </mxCell>
        <mxCell id="Z5YbvmB-cCHq1s_C08UM-119" style="edgeStyle=orthogonalEdgeStyle;rounded=0;orthogonalLoop=1;jettySize=auto;html=1;endArrow=none;endFill=0;fillColor=#d5e8d4;strokeColor=#82b366;" parent="1" source="Z5YbvmB-cCHq1s_C08UM-120" edge="1">
          <mxGeometry relative="1" as="geometry">
            <mxPoint x="608" y="851" as="targetPoint" />
            <Array as="points">
              <mxPoint x="495" y="851" />
            </Array>
          </mxGeometry>
        </mxCell>
        <mxCell id="Z5YbvmB-cCHq1s_C08UM-120" value="" style="rounded=0;whiteSpace=wrap;html=1;fillColor=#f8cecc;strokeColor=#b85450;" parent="1" vertex="1">
          <mxGeometry x="475" y="896" width="40" height="40" as="geometry" />
        </mxCell>
        <mxCell id="Z5YbvmB-cCHq1s_C08UM-121" value="&lt;font style=&quot;font-size: 16px;&quot;&gt;&lt;b&gt;Type&lt;/b&gt;&lt;/font&gt;" style="text;html=1;align=center;verticalAlign=middle;resizable=0;points=[];autosize=1;strokeColor=none;fillColor=none;" parent="1" vertex="1">
          <mxGeometry x="621" y="832" width="54" height="31" as="geometry" />
        </mxCell>
        <mxCell id="Z5YbvmB-cCHq1s_C08UM-122" style="edgeStyle=orthogonalEdgeStyle;rounded=0;orthogonalLoop=1;jettySize=auto;html=1;endArrow=classic;endFill=1;fillColor=#e1d5e7;strokeColor=#9673a6;" parent="1" source="Z5YbvmB-cCHq1s_C08UM-102" edge="1">
          <mxGeometry relative="1" as="geometry">
            <mxPoint x="619" y="813" as="targetPoint" />
            <mxPoint x="555" y="916" as="sourcePoint" />
            <Array as="points">
              <mxPoint x="535" y="813" />
            </Array>
          </mxGeometry>
        </mxCell>
        <mxCell id="Z5YbvmB-cCHq1s_C08UM-123" value="&lt;font style=&quot;font-size: 18px;&quot;&gt;&lt;b style=&quot;&quot;&gt;len&lt;/b&gt;&lt;/font&gt;" style="text;html=1;align=center;verticalAlign=middle;resizable=0;points=[];autosize=1;strokeColor=none;fillColor=none;" parent="1" vertex="1">
          <mxGeometry x="625" y="788" width="50" height="40" as="geometry" />
        </mxCell>
        <mxCell id="Z5YbvmB-cCHq1s_C08UM-124" style="edgeStyle=orthogonalEdgeStyle;rounded=0;orthogonalLoop=1;jettySize=auto;html=1;endArrow=none;endFill=0;" parent="1" edge="1">
          <mxGeometry relative="1" as="geometry">
            <mxPoint x="137" y="996" as="targetPoint" />
            <mxPoint x="137" y="936" as="sourcePoint" />
          </mxGeometry>
        </mxCell>
        <mxCell id="Z5YbvmB-cCHq1s_C08UM-125" style="edgeStyle=orthogonalEdgeStyle;rounded=0;orthogonalLoop=1;jettySize=auto;html=1;endArrow=none;endFill=0;" parent="1" edge="1">
          <mxGeometry relative="1" as="geometry">
            <mxPoint x="257" y="998" as="targetPoint" />
            <mxPoint x="257" y="938" as="sourcePoint" />
          </mxGeometry>
        </mxCell>
        <mxCell id="Z5YbvmB-cCHq1s_C08UM-126" style="edgeStyle=orthogonalEdgeStyle;rounded=0;orthogonalLoop=1;jettySize=auto;html=1;endArrow=none;endFill=0;" parent="1" edge="1">
          <mxGeometry relative="1" as="geometry">
            <mxPoint x="461" y="998" as="targetPoint" />
            <mxPoint x="461" y="938" as="sourcePoint" />
          </mxGeometry>
        </mxCell>
        <mxCell id="Z5YbvmB-cCHq1s_C08UM-127" style="edgeStyle=orthogonalEdgeStyle;rounded=0;orthogonalLoop=1;jettySize=auto;html=1;endArrow=none;endFill=0;" parent="1" edge="1">
          <mxGeometry relative="1" as="geometry">
            <mxPoint x="577" y="998" as="targetPoint" />
            <mxPoint x="577" y="938" as="sourcePoint" />
          </mxGeometry>
        </mxCell>
        <mxCell id="Z5YbvmB-cCHq1s_C08UM-128" value="&lt;b style=&quot;font-size: 15px;&quot;&gt;&lt;font style=&quot;font-size: 15px;&quot;&gt;version&lt;/font&gt;&lt;/b&gt;" style="text;html=1;align=center;verticalAlign=middle;resizable=0;points=[];autosize=1;strokeColor=none;fillColor=none;fontSize=15;" parent="1" vertex="1">
          <mxGeometry x="97" y="996" width="80" height="30" as="geometry" />
        </mxCell>
        <mxCell id="Z5YbvmB-cCHq1s_C08UM-129" value="&lt;b style=&quot;font-size: 15px;&quot;&gt;&lt;font style=&quot;font-size: 15px;&quot;&gt;cmd&lt;/font&gt;&lt;/b&gt;" style="text;html=1;align=center;verticalAlign=middle;resizable=0;points=[];autosize=1;strokeColor=none;fillColor=none;fontSize=15;" parent="1" vertex="1">
          <mxGeometry x="232" y="998" width="50" height="30" as="geometry" />
        </mxCell>
        <mxCell id="Z5YbvmB-cCHq1s_C08UM-130" value="&lt;b style=&quot;font-size: 15px;&quot;&gt;&lt;font style=&quot;font-size: 15px;&quot;&gt;gender&lt;/font&gt;&lt;/b&gt;" style="text;html=1;align=center;verticalAlign=middle;resizable=0;points=[];autosize=1;strokeColor=none;fillColor=none;fontSize=15;" parent="1" vertex="1">
          <mxGeometry x="426" y="998" width="70" height="30" as="geometry" />
        </mxCell>
        <mxCell id="Z5YbvmB-cCHq1s_C08UM-131" value="&lt;b style=&quot;font-size: 15px;&quot;&gt;&lt;font style=&quot;font-size: 15px;&quot;&gt;name&lt;/font&gt;&lt;/b&gt;" style="text;html=1;align=center;verticalAlign=middle;resizable=0;points=[];autosize=1;strokeColor=none;fillColor=none;fontSize=15;" parent="1" vertex="1">
          <mxGeometry x="547" y="998" width="60" height="30" as="geometry" />
        </mxCell>
        <mxCell id="Z5YbvmB-cCHq1s_C08UM-134" value="1011 1011" style="rounded=0;whiteSpace=wrap;html=1;fillColor=#ffe6cc;strokeColor=#d79b00;" parent="1" vertex="1">
          <mxGeometry x="1763" y="399" width="87" height="29" as="geometry" />
        </mxCell>
        <mxCell id="Z5YbvmB-cCHq1s_C08UM-135" value="1111 0000" style="rounded=0;whiteSpace=wrap;html=1;fillColor=#fff2cc;strokeColor=#d6b656;" parent="1" vertex="1">
          <mxGeometry x="1850" y="399" width="87" height="29" as="geometry" />
        </mxCell>
        <mxCell id="Z5YbvmB-cCHq1s_C08UM-136" value="0111 0000" style="rounded=0;whiteSpace=wrap;html=1;fillColor=#f8cecc;strokeColor=#b85450;" parent="1" vertex="1">
          <mxGeometry x="1937" y="399" width="87" height="29" as="geometry" />
        </mxCell>
        <mxCell id="Z5YbvmB-cCHq1s_C08UM-137" value="1111 0111" style="rounded=0;whiteSpace=wrap;html=1;fillColor=#d5e8d4;strokeColor=#82b366;" parent="1" vertex="1">
          <mxGeometry x="2024" y="399" width="87" height="29" as="geometry" />
        </mxCell>
        <mxCell id="Z5YbvmB-cCHq1s_C08UM-138" value="&lt;font style=&quot;font-size: 11px;&quot;&gt;&lt;b&gt;第一字节&lt;/b&gt;&lt;/font&gt;" style="text;html=1;align=center;verticalAlign=middle;resizable=0;points=[];autosize=1;strokeColor=none;fillColor=none;" parent="1" vertex="1">
          <mxGeometry x="1774" y="372" width="62" height="27" as="geometry" />
        </mxCell>
        <mxCell id="Z5YbvmB-cCHq1s_C08UM-139" value="&lt;font style=&quot;font-size: 11px;&quot;&gt;&lt;b&gt;第二字节&lt;/b&gt;&lt;/font&gt;" style="text;html=1;align=center;verticalAlign=middle;resizable=0;points=[];autosize=1;strokeColor=none;fillColor=none;" parent="1" vertex="1">
          <mxGeometry x="1857.5" y="372" width="62" height="27" as="geometry" />
        </mxCell>
        <mxCell id="Z5YbvmB-cCHq1s_C08UM-140" value="&lt;font style=&quot;font-size: 11px;&quot;&gt;&lt;b&gt;第三字节&lt;/b&gt;&lt;/font&gt;" style="text;html=1;align=center;verticalAlign=middle;resizable=0;points=[];autosize=1;strokeColor=none;fillColor=none;" parent="1" vertex="1">
          <mxGeometry x="1944.5" y="372" width="62" height="27" as="geometry" />
        </mxCell>
        <mxCell id="Z5YbvmB-cCHq1s_C08UM-141" value="&lt;font style=&quot;font-size: 11px;&quot;&gt;&lt;b&gt;第四字节&lt;/b&gt;&lt;/font&gt;" style="text;html=1;align=center;verticalAlign=middle;resizable=0;points=[];autosize=1;strokeColor=none;fillColor=none;" parent="1" vertex="1">
          <mxGeometry x="2034" y="372" width="62" height="27" as="geometry" />
        </mxCell>
        <mxCell id="Z5YbvmB-cCHq1s_C08UM-142" value="111 0000" style="rounded=0;whiteSpace=wrap;html=1;fillColor=#f8cecc;strokeColor=#b85450;" parent="1" vertex="1">
          <mxGeometry x="1796" y="533" width="87" height="29" as="geometry" />
        </mxCell>
        <mxCell id="Z5YbvmB-cCHq1s_C08UM-143" value="&lt;font style=&quot;font-size: 11px;&quot;&gt;&lt;b&gt;第 3 字节&lt;/b&gt;&lt;/font&gt;" style="text;html=1;align=center;verticalAlign=middle;resizable=0;points=[];autosize=1;strokeColor=none;fillColor=none;" parent="1" vertex="1">
          <mxGeometry x="1803.5" y="506" width="63" height="27" as="geometry" />
        </mxCell>
        <mxCell id="Z5YbvmB-cCHq1s_C08UM-144" value="111 0000" style="rounded=0;whiteSpace=wrap;html=1;fillColor=#fff2cc;strokeColor=#d6b656;" parent="1" vertex="1">
          <mxGeometry x="1883" y="533" width="87" height="29" as="geometry" />
        </mxCell>
        <mxCell id="Z5YbvmB-cCHq1s_C08UM-145" value="&lt;font style=&quot;font-size: 11px;&quot;&gt;&lt;b&gt;第 2 字节&lt;/b&gt;&lt;/font&gt;" style="text;html=1;align=center;verticalAlign=middle;resizable=0;points=[];autosize=1;strokeColor=none;fillColor=none;" parent="1" vertex="1">
          <mxGeometry x="1890.5" y="506" width="63" height="27" as="geometry" />
        </mxCell>
        <mxCell id="Z5YbvmB-cCHq1s_C08UM-146" value="011 1011" style="rounded=0;whiteSpace=wrap;html=1;fillColor=#ffe6cc;strokeColor=#d79b00;" parent="1" vertex="1">
          <mxGeometry x="1970" y="533" width="87" height="29" as="geometry" />
        </mxCell>
        <mxCell id="Z5YbvmB-cCHq1s_C08UM-147" value="&lt;font style=&quot;font-size: 11px;&quot;&gt;&lt;b&gt;第 1 字节&lt;/b&gt;&lt;/font&gt;" style="text;html=1;align=center;verticalAlign=middle;resizable=0;points=[];autosize=1;strokeColor=none;fillColor=none;" parent="1" vertex="1">
          <mxGeometry x="1981" y="506" width="63" height="27" as="geometry" />
        </mxCell>
        <mxCell id="Z5YbvmB-cCHq1s_C08UM-148" value="1" style="rounded=0;whiteSpace=wrap;html=1;" parent="1" vertex="1">
          <mxGeometry x="1674" y="733" width="25" height="24" as="geometry" />
        </mxCell>
        <mxCell id="Z5YbvmB-cCHq1s_C08UM-149" value="1" style="rounded=0;whiteSpace=wrap;html=1;" parent="1" vertex="1">
          <mxGeometry x="1699" y="733" width="25" height="24" as="geometry" />
        </mxCell>
        <mxCell id="Z5YbvmB-cCHq1s_C08UM-150" value="1" style="rounded=0;whiteSpace=wrap;html=1;" parent="1" vertex="1">
          <mxGeometry x="1724" y="733" width="25" height="24" as="geometry" />
        </mxCell>
        <mxCell id="Z5YbvmB-cCHq1s_C08UM-151" value="1" style="rounded=0;whiteSpace=wrap;html=1;" parent="1" vertex="1">
          <mxGeometry x="1749" y="733" width="25" height="24" as="geometry" />
        </mxCell>
        <mxCell id="Z5YbvmB-cCHq1s_C08UM-152" value="0" style="rounded=0;whiteSpace=wrap;html=1;" parent="1" vertex="1">
          <mxGeometry x="1774" y="733" width="25" height="24" as="geometry" />
        </mxCell>
        <mxCell id="Z5YbvmB-cCHq1s_C08UM-153" value="1" style="rounded=0;whiteSpace=wrap;html=1;" parent="1" vertex="1">
          <mxGeometry x="1799" y="733" width="25" height="24" as="geometry" />
        </mxCell>
        <mxCell id="Z5YbvmB-cCHq1s_C08UM-154" value="0" style="rounded=0;whiteSpace=wrap;html=1;" parent="1" vertex="1">
          <mxGeometry x="1824" y="733" width="25" height="24" as="geometry" />
        </mxCell>
        <mxCell id="Z5YbvmB-cCHq1s_C08UM-155" value="1" style="rounded=0;whiteSpace=wrap;html=1;" parent="1" vertex="1">
          <mxGeometry x="1849" y="733" width="25" height="24" as="geometry" />
        </mxCell>
        <mxCell id="Z5YbvmB-cCHq1s_C08UM-156" value="0" style="rounded=0;whiteSpace=wrap;html=1;" parent="1" vertex="1">
          <mxGeometry x="1874" y="733" width="25" height="24" as="geometry" />
        </mxCell>
        <mxCell id="Z5YbvmB-cCHq1s_C08UM-157" value="1" style="rounded=0;whiteSpace=wrap;html=1;" parent="1" vertex="1">
          <mxGeometry x="1899" y="733" width="25" height="24" as="geometry" />
        </mxCell>
        <mxCell id="Z5YbvmB-cCHq1s_C08UM-158" value="1" style="rounded=0;whiteSpace=wrap;html=1;fillColor=#f8cecc;strokeColor=#b85450;" parent="1" vertex="1">
          <mxGeometry x="1924" y="733" width="25" height="24" as="geometry" />
        </mxCell>
        <mxCell id="Z5YbvmB-cCHq1s_C08UM-159" value="1" style="rounded=0;whiteSpace=wrap;html=1;fillColor=#f8cecc;strokeColor=#b85450;" parent="1" vertex="1">
          <mxGeometry x="1949" y="733" width="25" height="24" as="geometry" />
        </mxCell>
        <mxCell id="Z5YbvmB-cCHq1s_C08UM-160" value="0" style="rounded=0;whiteSpace=wrap;html=1;fillColor=#f8cecc;strokeColor=#b85450;" parent="1" vertex="1">
          <mxGeometry x="1974" y="733" width="25" height="24" as="geometry" />
        </mxCell>
        <mxCell id="Z5YbvmB-cCHq1s_C08UM-161" value="1" style="rounded=0;whiteSpace=wrap;html=1;fillColor=#f8cecc;strokeColor=#b85450;" parent="1" vertex="1">
          <mxGeometry x="1999" y="733" width="25" height="24" as="geometry" />
        </mxCell>
        <mxCell id="Z5YbvmB-cCHq1s_C08UM-162" value="1" style="rounded=0;whiteSpace=wrap;html=1;fillColor=#f8cecc;strokeColor=#b85450;" parent="1" vertex="1">
          <mxGeometry x="2024" y="733" width="25" height="24" as="geometry" />
        </mxCell>
        <mxCell id="Z5YbvmB-cCHq1s_C08UM-163" value="1" style="rounded=0;whiteSpace=wrap;html=1;fillColor=#f8cecc;strokeColor=#b85450;" parent="1" vertex="1">
          <mxGeometry x="2049" y="733" width="25" height="24" as="geometry" />
        </mxCell>
        <mxCell id="Z5YbvmB-cCHq1s_C08UM-164" value="0" style="rounded=0;whiteSpace=wrap;html=1;fillColor=#f8cecc;strokeColor=#b85450;" parent="1" vertex="1">
          <mxGeometry x="2074" y="733" width="25" height="24" as="geometry" />
        </mxCell>
        <mxCell id="Z5YbvmB-cCHq1s_C08UM-174" value="" style="html=1;shadow=0;dashed=0;align=center;verticalAlign=middle;shape=mxgraph.arrows2.arrow;dy=0.62;dx=7.98;direction=south;notch=0;fillColor=#fad7ac;strokeColor=#b46504;" parent="1" vertex="1">
          <mxGeometry x="1878" y="772" width="17" height="30" as="geometry" />
        </mxCell>
        <mxCell id="Z5YbvmB-cCHq1s_C08UM-175" value="&lt;b&gt;&lt;font style=&quot;font-size: 11px;&quot;&gt;c | 0x80&lt;/font&gt;&lt;/b&gt;" style="text;html=1;align=center;verticalAlign=middle;resizable=0;points=[];autosize=1;strokeColor=none;fillColor=none;" parent="1" vertex="1">
          <mxGeometry x="1810.5" y="772" width="58" height="27" as="geometry" />
        </mxCell>
        <mxCell id="Z5YbvmB-cCHq1s_C08UM-176" value="1" style="rounded=0;whiteSpace=wrap;html=1;fillColor=#f8cecc;strokeColor=#b85450;" parent="1" vertex="1">
          <mxGeometry x="1813.5" y="815" width="25" height="24" as="geometry" />
        </mxCell>
        <mxCell id="Z5YbvmB-cCHq1s_C08UM-177" value="1" style="rounded=0;whiteSpace=wrap;html=1;fillColor=#f8cecc;strokeColor=#b85450;" parent="1" vertex="1">
          <mxGeometry x="1838.5" y="815" width="25" height="24" as="geometry" />
        </mxCell>
        <mxCell id="Z5YbvmB-cCHq1s_C08UM-178" value="0" style="rounded=0;whiteSpace=wrap;html=1;fillColor=#f8cecc;strokeColor=#b85450;" parent="1" vertex="1">
          <mxGeometry x="1863.5" y="815" width="25" height="24" as="geometry" />
        </mxCell>
        <mxCell id="Z5YbvmB-cCHq1s_C08UM-179" value="1" style="rounded=0;whiteSpace=wrap;html=1;fillColor=#f8cecc;strokeColor=#b85450;" parent="1" vertex="1">
          <mxGeometry x="1888.5" y="815" width="25" height="24" as="geometry" />
        </mxCell>
        <mxCell id="Z5YbvmB-cCHq1s_C08UM-180" value="1" style="rounded=0;whiteSpace=wrap;html=1;fillColor=#f8cecc;strokeColor=#b85450;" parent="1" vertex="1">
          <mxGeometry x="1913.5" y="815" width="25" height="24" as="geometry" />
        </mxCell>
        <mxCell id="Z5YbvmB-cCHq1s_C08UM-181" value="1" style="rounded=0;whiteSpace=wrap;html=1;fillColor=#f8cecc;strokeColor=#b85450;" parent="1" vertex="1">
          <mxGeometry x="1938.5" y="815" width="25" height="24" as="geometry" />
        </mxCell>
        <mxCell id="Z5YbvmB-cCHq1s_C08UM-182" value="0" style="rounded=0;whiteSpace=wrap;html=1;fillColor=#f8cecc;strokeColor=#b85450;" parent="1" vertex="1">
          <mxGeometry x="1963.5" y="815" width="25" height="24" as="geometry" />
        </mxCell>
        <mxCell id="Z5YbvmB-cCHq1s_C08UM-183" value="1" style="rounded=0;whiteSpace=wrap;html=1;fillColor=#f8cecc;strokeColor=#b85450;" parent="1" vertex="1">
          <mxGeometry x="1788.5" y="815" width="25" height="24" as="geometry" />
        </mxCell>
        <mxCell id="Z5YbvmB-cCHq1s_C08UM-184" value="&lt;b&gt;第一次循环：&lt;/b&gt;" style="text;html=1;align=center;verticalAlign=middle;resizable=0;points=[];autosize=1;strokeColor=none;fillColor=none;" parent="1" vertex="1">
          <mxGeometry x="1575" y="772" width="90" height="26" as="geometry" />
        </mxCell>
        <mxCell id="Z5YbvmB-cCHq1s_C08UM-185" value="1" style="rounded=0;whiteSpace=wrap;html=1;" parent="1" vertex="1">
          <mxGeometry x="1761.5" y="922" width="25" height="24" as="geometry" />
        </mxCell>
        <mxCell id="Z5YbvmB-cCHq1s_C08UM-186" value="1" style="rounded=0;whiteSpace=wrap;html=1;" parent="1" vertex="1">
          <mxGeometry x="1786.5" y="922" width="25" height="24" as="geometry" />
        </mxCell>
        <mxCell id="Z5YbvmB-cCHq1s_C08UM-187" value="1" style="rounded=0;whiteSpace=wrap;html=1;" parent="1" vertex="1">
          <mxGeometry x="1811.5" y="922" width="25" height="24" as="geometry" />
        </mxCell>
        <mxCell id="Z5YbvmB-cCHq1s_C08UM-188" value="1" style="rounded=0;whiteSpace=wrap;html=1;fillColor=#f8cecc;strokeColor=#b85450;" parent="1" vertex="1">
          <mxGeometry x="1836.5" y="922" width="25" height="24" as="geometry" />
        </mxCell>
        <mxCell id="Z5YbvmB-cCHq1s_C08UM-189" value="0" style="rounded=0;whiteSpace=wrap;html=1;fillColor=#f8cecc;strokeColor=#b85450;" parent="1" vertex="1">
          <mxGeometry x="1861.5" y="922" width="25" height="24" as="geometry" />
        </mxCell>
        <mxCell id="Z5YbvmB-cCHq1s_C08UM-190" value="1" style="rounded=0;whiteSpace=wrap;html=1;fillColor=#f8cecc;strokeColor=#b85450;" parent="1" vertex="1">
          <mxGeometry x="1886.5" y="922" width="25" height="24" as="geometry" />
        </mxCell>
        <mxCell id="Z5YbvmB-cCHq1s_C08UM-191" value="0" style="rounded=0;whiteSpace=wrap;html=1;fillColor=#f8cecc;strokeColor=#b85450;" parent="1" vertex="1">
          <mxGeometry x="1911.5" y="922" width="25" height="24" as="geometry" />
        </mxCell>
        <mxCell id="Z5YbvmB-cCHq1s_C08UM-192" value="1" style="rounded=0;whiteSpace=wrap;html=1;fillColor=#f8cecc;strokeColor=#b85450;" parent="1" vertex="1">
          <mxGeometry x="1936.5" y="922" width="25" height="24" as="geometry" />
        </mxCell>
        <mxCell id="Z5YbvmB-cCHq1s_C08UM-193" value="0" style="rounded=0;whiteSpace=wrap;html=1;fillColor=#f8cecc;strokeColor=#b85450;" parent="1" vertex="1">
          <mxGeometry x="1961.5" y="922" width="25" height="24" as="geometry" />
        </mxCell>
        <mxCell id="Z5YbvmB-cCHq1s_C08UM-194" value="1" style="rounded=0;whiteSpace=wrap;html=1;fillColor=#f8cecc;strokeColor=#b85450;" parent="1" vertex="1">
          <mxGeometry x="1986.5" y="922" width="25" height="24" as="geometry" />
        </mxCell>
        <mxCell id="Z5YbvmB-cCHq1s_C08UM-202" value="" style="html=1;shadow=0;dashed=0;align=center;verticalAlign=middle;shape=mxgraph.arrows2.arrow;dy=0.62;dx=7.98;direction=south;notch=0;fillColor=#fad7ac;strokeColor=#b46504;" parent="1" vertex="1">
          <mxGeometry x="1885" y="958" width="17" height="30" as="geometry" />
        </mxCell>
        <mxCell id="Z5YbvmB-cCHq1s_C08UM-203" value="&lt;b&gt;&lt;font style=&quot;font-size: 11px;&quot;&gt;c | 0x80&lt;/font&gt;&lt;/b&gt;" style="text;html=1;align=center;verticalAlign=middle;resizable=0;points=[];autosize=1;strokeColor=none;fillColor=none;" parent="1" vertex="1">
          <mxGeometry x="1817.5" y="958" width="58" height="27" as="geometry" />
        </mxCell>
        <mxCell id="Z5YbvmB-cCHq1s_C08UM-204" value="1" style="rounded=0;whiteSpace=wrap;html=1;fillColor=#f8cecc;strokeColor=#b85450;" parent="1" vertex="1">
          <mxGeometry x="1820.5" y="1001" width="25" height="24" as="geometry" />
        </mxCell>
        <mxCell id="Z5YbvmB-cCHq1s_C08UM-205" value="0" style="rounded=0;whiteSpace=wrap;html=1;fillColor=#f8cecc;strokeColor=#b85450;" parent="1" vertex="1">
          <mxGeometry x="1845.5" y="1001" width="25" height="24" as="geometry" />
        </mxCell>
        <mxCell id="Z5YbvmB-cCHq1s_C08UM-206" value="1" style="rounded=0;whiteSpace=wrap;html=1;fillColor=#f8cecc;strokeColor=#b85450;" parent="1" vertex="1">
          <mxGeometry x="1870.5" y="1001" width="25" height="24" as="geometry" />
        </mxCell>
        <mxCell id="Z5YbvmB-cCHq1s_C08UM-207" value="0" style="rounded=0;whiteSpace=wrap;html=1;fillColor=#f8cecc;strokeColor=#b85450;" parent="1" vertex="1">
          <mxGeometry x="1895.5" y="1001" width="25" height="24" as="geometry" />
        </mxCell>
        <mxCell id="Z5YbvmB-cCHq1s_C08UM-208" value="1" style="rounded=0;whiteSpace=wrap;html=1;fillColor=#f8cecc;strokeColor=#b85450;" parent="1" vertex="1">
          <mxGeometry x="1920.5" y="1001" width="25" height="24" as="geometry" />
        </mxCell>
        <mxCell id="Z5YbvmB-cCHq1s_C08UM-209" value="0" style="rounded=0;whiteSpace=wrap;html=1;fillColor=#f8cecc;strokeColor=#b85450;" parent="1" vertex="1">
          <mxGeometry x="1945.5" y="1001" width="25" height="24" as="geometry" />
        </mxCell>
        <mxCell id="Z5YbvmB-cCHq1s_C08UM-210" value="1" style="rounded=0;whiteSpace=wrap;html=1;fillColor=#f8cecc;strokeColor=#b85450;" parent="1" vertex="1">
          <mxGeometry x="1970.5" y="1001" width="25" height="24" as="geometry" />
        </mxCell>
        <mxCell id="Z5YbvmB-cCHq1s_C08UM-211" value="1" style="rounded=0;whiteSpace=wrap;html=1;fillColor=#f8cecc;strokeColor=#b85450;" parent="1" vertex="1">
          <mxGeometry x="1795.5" y="1001" width="25" height="24" as="geometry" />
        </mxCell>
        <mxCell id="Z5YbvmB-cCHq1s_C08UM-212" value="&lt;b&gt;第二次循环：&lt;/b&gt;" style="text;html=1;align=center;verticalAlign=middle;resizable=0;points=[];autosize=1;strokeColor=none;fillColor=none;" parent="1" vertex="1">
          <mxGeometry x="1582" y="958" width="90" height="26" as="geometry" />
        </mxCell>
        <mxCell id="i5NqyHi5_0pq4oswnAKu-1" value="" style="rounded=0;whiteSpace=wrap;html=1;fillColor=#ffe6cc;strokeColor=#d79b00;" parent="1" vertex="1">
          <mxGeometry x="1543" y="220" width="26" height="25" as="geometry" />
        </mxCell>
        <mxCell id="i5NqyHi5_0pq4oswnAKu-2" value="" style="rounded=0;whiteSpace=wrap;html=1;fillColor=#ffe6cc;strokeColor=#d79b00;" parent="1" vertex="1">
          <mxGeometry x="1569" y="220" width="26" height="25" as="geometry" />
        </mxCell>
        <mxCell id="i5NqyHi5_0pq4oswnAKu-3" value="" style="rounded=0;whiteSpace=wrap;html=1;fillColor=#ffe6cc;strokeColor=#d79b00;" parent="1" vertex="1">
          <mxGeometry x="1595" y="220" width="26" height="25" as="geometry" />
        </mxCell>
        <mxCell id="i5NqyHi5_0pq4oswnAKu-5" value="" style="rounded=0;whiteSpace=wrap;html=1;fillColor=#ffe6cc;strokeColor=#d79b00;" parent="1" vertex="1">
          <mxGeometry x="1621" y="220" width="26" height="25" as="geometry" />
        </mxCell>
        <mxCell id="i5NqyHi5_0pq4oswnAKu-6" value="" style="rounded=0;whiteSpace=wrap;html=1;fillColor=#f8cecc;strokeColor=#b85450;" parent="1" vertex="1">
          <mxGeometry x="1647" y="220" width="26" height="25" as="geometry" />
        </mxCell>
        <mxCell id="i5NqyHi5_0pq4oswnAKu-7" value="" style="rounded=0;whiteSpace=wrap;html=1;fillColor=#f8cecc;strokeColor=#b85450;" parent="1" vertex="1">
          <mxGeometry x="1673" y="220" width="26" height="25" as="geometry" />
        </mxCell>
        <mxCell id="i5NqyHi5_0pq4oswnAKu-8" value="" style="rounded=0;whiteSpace=wrap;html=1;fillColor=#f8cecc;strokeColor=#b85450;" parent="1" vertex="1">
          <mxGeometry x="1699" y="220" width="26" height="25" as="geometry" />
        </mxCell>
        <mxCell id="i5NqyHi5_0pq4oswnAKu-9" value="" style="rounded=0;whiteSpace=wrap;html=1;fillColor=#f8cecc;strokeColor=#b85450;" parent="1" vertex="1">
          <mxGeometry x="1725" y="220" width="26" height="25" as="geometry" />
        </mxCell>
        <mxCell id="i5NqyHi5_0pq4oswnAKu-10" value="" style="rounded=0;whiteSpace=wrap;html=1;fillColor=#fff2cc;strokeColor=#d6b656;" parent="1" vertex="1">
          <mxGeometry x="1751" y="220" width="26" height="25" as="geometry" />
        </mxCell>
        <mxCell id="i5NqyHi5_0pq4oswnAKu-11" value="" style="rounded=0;whiteSpace=wrap;html=1;fillColor=#fff2cc;strokeColor=#d6b656;" parent="1" vertex="1">
          <mxGeometry x="1777" y="220" width="26" height="25" as="geometry" />
        </mxCell>
        <mxCell id="i5NqyHi5_0pq4oswnAKu-12" value="" style="rounded=0;whiteSpace=wrap;html=1;fillColor=#fff2cc;strokeColor=#d6b656;" parent="1" vertex="1">
          <mxGeometry x="1803" y="220" width="26" height="25" as="geometry" />
        </mxCell>
        <mxCell id="i5NqyHi5_0pq4oswnAKu-13" value="" style="rounded=0;whiteSpace=wrap;html=1;fillColor=#fff2cc;strokeColor=#d6b656;" parent="1" vertex="1">
          <mxGeometry x="1829" y="220" width="26" height="25" as="geometry" />
        </mxCell>
        <mxCell id="i5NqyHi5_0pq4oswnAKu-14" value="" style="rounded=0;whiteSpace=wrap;html=1;fillColor=#dae8fc;strokeColor=#6c8ebf;" parent="1" vertex="1">
          <mxGeometry x="1855" y="220" width="26" height="25" as="geometry" />
        </mxCell>
        <mxCell id="i5NqyHi5_0pq4oswnAKu-15" value="" style="rounded=0;whiteSpace=wrap;html=1;fillColor=#dae8fc;strokeColor=#6c8ebf;" parent="1" vertex="1">
          <mxGeometry x="1881" y="220" width="26" height="25" as="geometry" />
        </mxCell>
        <mxCell id="i5NqyHi5_0pq4oswnAKu-16" value="" style="rounded=0;whiteSpace=wrap;html=1;fillColor=#d5e8d4;strokeColor=#82b366;" parent="1" vertex="1">
          <mxGeometry x="1907" y="220" width="26" height="25" as="geometry" />
        </mxCell>
        <mxCell id="i5NqyHi5_0pq4oswnAKu-17" value="" style="rounded=0;whiteSpace=wrap;html=1;fillColor=#d5e8d4;strokeColor=#82b366;" parent="1" vertex="1">
          <mxGeometry x="1933" y="220" width="26" height="25" as="geometry" />
        </mxCell>
        <mxCell id="i5NqyHi5_0pq4oswnAKu-18" value="" style="rounded=0;whiteSpace=wrap;html=1;fillColor=#d5e8d4;strokeColor=#82b366;" parent="1" vertex="1">
          <mxGeometry x="1959" y="220" width="26" height="25" as="geometry" />
        </mxCell>
        <mxCell id="i5NqyHi5_0pq4oswnAKu-19" value="" style="rounded=0;whiteSpace=wrap;html=1;fillColor=#d5e8d4;strokeColor=#82b366;" parent="1" vertex="1">
          <mxGeometry x="1985" y="220" width="26" height="25" as="geometry" />
        </mxCell>
        <mxCell id="i5NqyHi5_0pq4oswnAKu-20" value="" style="rounded=0;whiteSpace=wrap;html=1;fillColor=#d5e8d4;strokeColor=#82b366;" parent="1" vertex="1">
          <mxGeometry x="2011" y="220" width="26" height="25" as="geometry" />
        </mxCell>
        <mxCell id="i5NqyHi5_0pq4oswnAKu-21" value="" style="rounded=0;whiteSpace=wrap;html=1;fillColor=#d5e8d4;strokeColor=#82b366;" parent="1" vertex="1">
          <mxGeometry x="2037" y="220" width="26" height="25" as="geometry" />
        </mxCell>
        <mxCell id="i5NqyHi5_0pq4oswnAKu-22" value="" style="rounded=0;whiteSpace=wrap;html=1;fillColor=#e1d5e7;strokeColor=#9673a6;" parent="1" vertex="1">
          <mxGeometry x="2063" y="220" width="26" height="25" as="geometry" />
        </mxCell>
        <mxCell id="i5NqyHi5_0pq4oswnAKu-23" value="" style="rounded=0;whiteSpace=wrap;html=1;fillColor=#e1d5e7;strokeColor=#9673a6;" parent="1" vertex="1">
          <mxGeometry x="2089" y="220" width="26" height="25" as="geometry" />
        </mxCell>
        <mxCell id="i5NqyHi5_0pq4oswnAKu-24" value="" style="rounded=0;whiteSpace=wrap;html=1;fillColor=#e1d5e7;strokeColor=#9673a6;" parent="1" vertex="1">
          <mxGeometry x="2115" y="220" width="26" height="25" as="geometry" />
        </mxCell>
        <mxCell id="i5NqyHi5_0pq4oswnAKu-25" value="" style="rounded=0;whiteSpace=wrap;html=1;fillColor=#e1d5e7;strokeColor=#9673a6;" parent="1" vertex="1">
          <mxGeometry x="2141" y="220" width="26" height="25" as="geometry" />
        </mxCell>
        <mxCell id="i5NqyHi5_0pq4oswnAKu-26" value="" style="shape=curlyBracket;whiteSpace=wrap;html=1;rounded=1;flipH=1;labelPosition=right;verticalLabelPosition=middle;align=left;verticalAlign=middle;rotation=90;" parent="1" vertex="1">
          <mxGeometry x="1588.5" y="208" width="15" height="103" as="geometry" />
        </mxCell>
        <mxCell id="i5NqyHi5_0pq4oswnAKu-31" value="" style="shape=curlyBracket;whiteSpace=wrap;html=1;rounded=1;flipH=1;labelPosition=right;verticalLabelPosition=middle;align=left;verticalAlign=middle;rotation=-90;" parent="1" vertex="1">
          <mxGeometry x="1694" y="155" width="15" height="103" as="geometry" />
        </mxCell>
        <mxCell id="i5NqyHi5_0pq4oswnAKu-32" value="" style="shape=curlyBracket;whiteSpace=wrap;html=1;rounded=1;flipH=1;labelPosition=right;verticalLabelPosition=middle;align=left;verticalAlign=middle;rotation=90;" parent="1" vertex="1">
          <mxGeometry x="1797" y="208" width="15" height="103" as="geometry" />
        </mxCell>
        <mxCell id="i5NqyHi5_0pq4oswnAKu-34" value="" style="shape=curlyBracket;whiteSpace=wrap;html=1;rounded=1;flipH=1;labelPosition=right;verticalLabelPosition=middle;align=left;verticalAlign=middle;rotation=-90;" parent="1" vertex="1">
          <mxGeometry x="1872.5" y="182" width="15" height="49" as="geometry" />
        </mxCell>
        <mxCell id="i5NqyHi5_0pq4oswnAKu-35" value="" style="shape=curlyBracket;whiteSpace=wrap;html=1;rounded=1;flipH=1;labelPosition=right;verticalLabelPosition=middle;align=left;verticalAlign=middle;rotation=90;" parent="1" vertex="1">
          <mxGeometry x="1978" y="181.5" width="15" height="156" as="geometry" />
        </mxCell>
        <mxCell id="i5NqyHi5_0pq4oswnAKu-36" value="" style="shape=curlyBracket;whiteSpace=wrap;html=1;rounded=1;flipH=1;labelPosition=right;verticalLabelPosition=middle;align=left;verticalAlign=middle;rotation=90;" parent="1" vertex="1">
          <mxGeometry x="2111" y="208" width="15" height="103" as="geometry" />
        </mxCell>
        <mxCell id="i5NqyHi5_0pq4oswnAKu-37" value="&lt;b&gt;msgType&lt;/b&gt;" style="text;html=1;align=center;verticalAlign=middle;resizable=0;points=[];autosize=1;strokeColor=none;fillColor=none;" parent="1" vertex="1">
          <mxGeometry x="1561" y="264" width="70" height="26" as="geometry" />
        </mxCell>
        <mxCell id="i5NqyHi5_0pq4oswnAKu-38" value="&lt;b&gt;seq&lt;/b&gt;" style="text;html=1;align=center;verticalAlign=middle;resizable=0;points=[];autosize=1;strokeColor=none;fillColor=none;" parent="1" vertex="1">
          <mxGeometry x="1682" y="176" width="39" height="26" as="geometry" />
        </mxCell>
        <mxCell id="i5NqyHi5_0pq4oswnAKu-39" value="&lt;b&gt;senderId&lt;/b&gt;" style="text;html=1;align=center;verticalAlign=middle;resizable=0;points=[];autosize=1;strokeColor=none;fillColor=none;" parent="1" vertex="1">
          <mxGeometry x="1772.5" y="264" width="68" height="26" as="geometry" />
        </mxCell>
        <mxCell id="i5NqyHi5_0pq4oswnAKu-40" value="&lt;b&gt;len&lt;/b&gt;" style="text;html=1;align=center;verticalAlign=middle;resizable=0;points=[];autosize=1;strokeColor=none;fillColor=none;" parent="1" vertex="1">
          <mxGeometry x="1862.5" y="176" width="35" height="26" as="geometry" />
        </mxCell>
        <mxCell id="i5NqyHi5_0pq4oswnAKu-41" value="&lt;b&gt;chatMsg&lt;/b&gt;" style="text;html=1;align=center;verticalAlign=middle;resizable=0;points=[];autosize=1;strokeColor=none;fillColor=none;" parent="1" vertex="1">
          <mxGeometry x="1955" y="264" width="67" height="26" as="geometry" />
        </mxCell>
        <mxCell id="i5NqyHi5_0pq4oswnAKu-42" value="&lt;b&gt;receiverId&lt;/b&gt;" style="text;html=1;align=center;verticalAlign=middle;resizable=0;points=[];autosize=1;strokeColor=none;fillColor=none;" parent="1" vertex="1">
          <mxGeometry x="2087" y="264" width="75" height="26" as="geometry" />
        </mxCell>
        <mxCell id="zjEUBH4HDeHnJ98qzoNN-4" style="edgeStyle=orthogonalEdgeStyle;rounded=0;orthogonalLoop=1;jettySize=auto;html=1;curved=1;" edge="1" parent="1" source="zjEUBH4HDeHnJ98qzoNN-1">
          <mxGeometry relative="1" as="geometry">
            <mxPoint x="1104.5925654658563" y="1413.0370506004049" as="targetPoint" />
            <Array as="points">
              <mxPoint x="1047" y="1394" />
              <mxPoint x="1105" y="1394" />
            </Array>
          </mxGeometry>
        </mxCell>
        <mxCell id="zjEUBH4HDeHnJ98qzoNN-8" style="edgeStyle=orthogonalEdgeStyle;rounded=0;orthogonalLoop=1;jettySize=auto;html=1;entryX=1;entryY=0.5;entryDx=0;entryDy=0;curved=1;" edge="1" parent="1" source="zjEUBH4HDeHnJ98qzoNN-1" target="zjEUBH4HDeHnJ98qzoNN-2">
          <mxGeometry relative="1" as="geometry">
            <Array as="points">
              <mxPoint x="1067" y="1590" />
            </Array>
          </mxGeometry>
        </mxCell>
        <mxCell id="zjEUBH4HDeHnJ98qzoNN-14" style="edgeStyle=orthogonalEdgeStyle;rounded=0;orthogonalLoop=1;jettySize=auto;html=1;entryX=0.417;entryY=0;entryDx=0;entryDy=0;entryPerimeter=0;curved=1;" edge="1" parent="1" source="zjEUBH4HDeHnJ98qzoNN-1" target="zjEUBH4HDeHnJ98qzoNN-3">
          <mxGeometry relative="1" as="geometry" />
        </mxCell>
        <mxCell id="zjEUBH4HDeHnJ98qzoNN-1" value="&lt;b&gt;LINE_OPEN&lt;/b&gt;" style="rounded=1;whiteSpace=wrap;html=1;" vertex="1" parent="1">
          <mxGeometry x="1029.5" y="1414" width="87.5" height="36" as="geometry" />
        </mxCell>
        <mxCell id="zjEUBH4HDeHnJ98qzoNN-13" style="edgeStyle=orthogonalEdgeStyle;rounded=0;orthogonalLoop=1;jettySize=auto;html=1;entryX=0;entryY=0.5;entryDx=0;entryDy=0;curved=1;" edge="1" parent="1" source="zjEUBH4HDeHnJ98qzoNN-2" target="zjEUBH4HDeHnJ98qzoNN-1">
          <mxGeometry relative="1" as="geometry">
            <Array as="points">
              <mxPoint x="950" y="1432" />
            </Array>
          </mxGeometry>
        </mxCell>
        <mxCell id="zjEUBH4HDeHnJ98qzoNN-2" value="&lt;b&gt;LINE_OK&lt;/b&gt;" style="rounded=1;whiteSpace=wrap;html=1;" vertex="1" parent="1">
          <mxGeometry x="907.75" y="1572" width="87.5" height="36" as="geometry" />
        </mxCell>
        <mxCell id="zjEUBH4HDeHnJ98qzoNN-3" value="&lt;b&gt;LINE_BAD&lt;/b&gt;" style="rounded=1;whiteSpace=wrap;html=1;" vertex="1" parent="1">
          <mxGeometry x="1196" y="1572" width="87.5" height="36" as="geometry" />
        </mxCell>
        <mxCell id="zjEUBH4HDeHnJ98qzoNN-5" value="&lt;b style=&quot;font-size: 11px;&quot;&gt;&lt;font style=&quot;font-size: 11px;&quot; face=&quot;Lucida Console&quot;&gt;未读取到&lt;br&gt;完整请求&lt;/font&gt;&lt;/b&gt;" style="text;html=1;align=center;verticalAlign=middle;resizable=0;points=[];autosize=1;strokeColor=none;fillColor=none;" vertex="1" parent="1">
          <mxGeometry x="1046.5" y="1354" width="62" height="42" as="geometry" />
        </mxCell>
        <mxCell id="zjEUBH4HDeHnJ98qzoNN-7" value="&lt;b style=&quot;font-size: 11px;&quot;&gt;新的客户&lt;br&gt;数据到达&lt;/b&gt;" style="text;html=1;align=center;verticalAlign=middle;resizable=0;points=[];autosize=1;strokeColor=none;fillColor=none;" vertex="1" parent="1">
          <mxGeometry x="893" y="1473" width="62" height="42" as="geometry" />
        </mxCell>
        <mxCell id="zjEUBH4HDeHnJ98qzoNN-9" value="&lt;b style=&quot;font-size: 11px;&quot;&gt;读取到回车&lt;br&gt;和换行符&lt;/b&gt;" style="text;html=1;align=center;verticalAlign=middle;resizable=0;points=[];autosize=1;strokeColor=none;fillColor=none;" vertex="1" parent="1">
          <mxGeometry x="989" y="1491" width="73" height="42" as="geometry" />
        </mxCell>
        <mxCell id="zjEUBH4HDeHnJ98qzoNN-15" value="&lt;b style=&quot;font-size: 11px;&quot;&gt;回车字符&lt;br&gt;和换行字符&lt;br&gt;单独出现在&lt;br&gt;&amp;nbsp;HTTP 请求中&lt;/b&gt;" style="text;html=1;align=center;verticalAlign=middle;resizable=0;points=[];autosize=1;strokeColor=none;fillColor=none;" vertex="1" parent="1">
          <mxGeometry x="1210.5" y="1425" width="86" height="71" as="geometry" />
        </mxCell>
        <mxCell id="zjEUBH4HDeHnJ98qzoNN-17" value="" style="rounded=0;whiteSpace=wrap;html=1;" vertex="1" parent="1">
          <mxGeometry x="1708" y="1162" width="25" height="24" as="geometry" />
        </mxCell>
        <mxCell id="zjEUBH4HDeHnJ98qzoNN-18" value="" style="rounded=0;whiteSpace=wrap;html=1;" vertex="1" parent="1">
          <mxGeometry x="1733" y="1162" width="25" height="24" as="geometry" />
        </mxCell>
        <mxCell id="zjEUBH4HDeHnJ98qzoNN-19" value="" style="rounded=0;whiteSpace=wrap;html=1;" vertex="1" parent="1">
          <mxGeometry x="1758" y="1162" width="25" height="24" as="geometry" />
        </mxCell>
        <mxCell id="zjEUBH4HDeHnJ98qzoNN-20" value="H" style="rounded=0;whiteSpace=wrap;html=1;fillColor=#f8cecc;strokeColor=#b85450;fontStyle=1" vertex="1" parent="1">
          <mxGeometry x="1783" y="1162" width="25" height="24" as="geometry" />
        </mxCell>
        <mxCell id="zjEUBH4HDeHnJ98qzoNN-21" value="O" style="rounded=0;whiteSpace=wrap;html=1;fillColor=#f8cecc;strokeColor=#b85450;fontStyle=1" vertex="1" parent="1">
          <mxGeometry x="1808" y="1162" width="25" height="24" as="geometry" />
        </mxCell>
        <mxCell id="zjEUBH4HDeHnJ98qzoNN-22" value="S" style="rounded=0;whiteSpace=wrap;html=1;fillColor=#f8cecc;strokeColor=#b85450;fontStyle=1" vertex="1" parent="1">
          <mxGeometry x="1833" y="1162" width="25" height="24" as="geometry" />
        </mxCell>
        <mxCell id="zjEUBH4HDeHnJ98qzoNN-23" value="T" style="rounded=0;whiteSpace=wrap;html=1;fillColor=#f8cecc;strokeColor=#b85450;fontStyle=1" vertex="1" parent="1">
          <mxGeometry x="1858" y="1162" width="25" height="24" as="geometry" />
        </mxCell>
        <mxCell id="zjEUBH4HDeHnJ98qzoNN-24" value=":" style="rounded=0;whiteSpace=wrap;html=1;fillColor=#f8cecc;strokeColor=#b85450;fontStyle=1" vertex="1" parent="1">
          <mxGeometry x="1883" y="1162" width="25" height="24" as="geometry" />
        </mxCell>
        <mxCell id="zjEUBH4HDeHnJ98qzoNN-25" value="" style="rounded=0;whiteSpace=wrap;html=1;fillColor=#f8cecc;strokeColor=#b85450;fontStyle=1" vertex="1" parent="1">
          <mxGeometry x="1908" y="1162" width="25" height="24" as="geometry" />
        </mxCell>
        <mxCell id="zjEUBH4HDeHnJ98qzoNN-26" value="l" style="rounded=0;whiteSpace=wrap;html=1;fillColor=#f8cecc;strokeColor=#b85450;fontStyle=1" vertex="1" parent="1">
          <mxGeometry x="1933" y="1162" width="25" height="24" as="geometry" />
        </mxCell>
        <mxCell id="zjEUBH4HDeHnJ98qzoNN-31" value="o" style="rounded=0;whiteSpace=wrap;html=1;fillColor=#f8cecc;strokeColor=#b85450;fontStyle=1" vertex="1" parent="1">
          <mxGeometry x="1958" y="1162" width="25" height="24" as="geometry" />
        </mxCell>
        <mxCell id="zjEUBH4HDeHnJ98qzoNN-32" value="c" style="rounded=0;whiteSpace=wrap;html=1;fillColor=#f8cecc;strokeColor=#b85450;fontStyle=1" vertex="1" parent="1">
          <mxGeometry x="1983" y="1162" width="25" height="24" as="geometry" />
        </mxCell>
        <mxCell id="zjEUBH4HDeHnJ98qzoNN-33" value="a" style="rounded=0;whiteSpace=wrap;html=1;fillColor=#f8cecc;strokeColor=#b85450;fontStyle=1" vertex="1" parent="1">
          <mxGeometry x="2008" y="1162" width="25" height="24" as="geometry" />
        </mxCell>
        <mxCell id="zjEUBH4HDeHnJ98qzoNN-34" value="l" style="rounded=0;whiteSpace=wrap;html=1;fillColor=#f8cecc;strokeColor=#b85450;fontStyle=1" vertex="1" parent="1">
          <mxGeometry x="2033" y="1162" width="25" height="24" as="geometry" />
        </mxCell>
        <mxCell id="zjEUBH4HDeHnJ98qzoNN-35" value="" style="rounded=0;whiteSpace=wrap;html=1;" vertex="1" parent="1">
          <mxGeometry x="2058" y="1162" width="25" height="24" as="geometry" />
        </mxCell>
        <mxCell id="zjEUBH4HDeHnJ98qzoNN-36" value="" style="rounded=0;whiteSpace=wrap;html=1;" vertex="1" parent="1">
          <mxGeometry x="2083" y="1162" width="25" height="24" as="geometry" />
        </mxCell>
        <mxCell id="zjEUBH4HDeHnJ98qzoNN-37" value="" style="rounded=0;whiteSpace=wrap;html=1;" vertex="1" parent="1">
          <mxGeometry x="2108" y="1162" width="25" height="24" as="geometry" />
        </mxCell>
        <mxCell id="zjEUBH4HDeHnJ98qzoNN-38" value="" style="rounded=0;whiteSpace=wrap;html=1;" vertex="1" parent="1">
          <mxGeometry x="2133" y="1162" width="25" height="24" as="geometry" />
        </mxCell>
        <mxCell id="zjEUBH4HDeHnJ98qzoNN-39" value="" style="rounded=0;whiteSpace=wrap;html=1;" vertex="1" parent="1">
          <mxGeometry x="2158" y="1162" width="25" height="24" as="geometry" />
        </mxCell>
        <mxCell id="zjEUBH4HDeHnJ98qzoNN-40" value="" style="rounded=0;whiteSpace=wrap;html=1;" vertex="1" parent="1">
          <mxGeometry x="2183" y="1162" width="25" height="24" as="geometry" />
        </mxCell>
        <mxCell id="zjEUBH4HDeHnJ98qzoNN-42" style="edgeStyle=orthogonalEdgeStyle;rounded=0;orthogonalLoop=1;jettySize=auto;html=1;endArrow=block;endFill=1;" edge="1" parent="1" source="zjEUBH4HDeHnJ98qzoNN-41">
          <mxGeometry relative="1" as="geometry">
            <mxPoint x="1798.9999999999995" y="1189.074001736111" as="targetPoint" />
          </mxGeometry>
        </mxCell>
        <mxCell id="zjEUBH4HDeHnJ98qzoNN-41" value="&lt;font style=&quot;font-size: 11px;&quot;&gt;&lt;b&gt;checked_index&lt;/b&gt;&lt;/font&gt;" style="text;html=1;align=center;verticalAlign=middle;resizable=0;points=[];autosize=1;strokeColor=none;fillColor=none;" vertex="1" parent="1">
          <mxGeometry x="1750.5" y="1216" width="97" height="27" as="geometry" />
        </mxCell>
        <mxCell id="zjEUBH4HDeHnJ98qzoNN-44" style="edgeStyle=orthogonalEdgeStyle;rounded=0;orthogonalLoop=1;jettySize=auto;html=1;endArrow=block;endFill=1;" edge="1" parent="1" source="zjEUBH4HDeHnJ98qzoNN-43">
          <mxGeometry relative="1" as="geometry">
            <mxPoint x="2068" y="1158.2591937029802" as="targetPoint" />
          </mxGeometry>
        </mxCell>
        <mxCell id="zjEUBH4HDeHnJ98qzoNN-43" value="&lt;font style=&quot;font-size: 11px;&quot;&gt;&lt;b&gt;read_index&lt;/b&gt;&lt;/font&gt;" style="text;html=1;align=center;verticalAlign=middle;resizable=0;points=[];autosize=1;strokeColor=none;fillColor=none;" vertex="1" parent="1">
          <mxGeometry x="2029.5" y="1100" width="76" height="27" as="geometry" />
        </mxCell>
        <mxCell id="zjEUBH4HDeHnJ98qzoNN-69" value="" style="rounded=0;whiteSpace=wrap;html=1;" vertex="1" parent="1">
          <mxGeometry x="1704" y="1321" width="25" height="24" as="geometry" />
        </mxCell>
        <mxCell id="zjEUBH4HDeHnJ98qzoNN-70" value="" style="rounded=0;whiteSpace=wrap;html=1;" vertex="1" parent="1">
          <mxGeometry x="1729" y="1321" width="25" height="24" as="geometry" />
        </mxCell>
        <mxCell id="zjEUBH4HDeHnJ98qzoNN-71" value="" style="rounded=0;whiteSpace=wrap;html=1;" vertex="1" parent="1">
          <mxGeometry x="1754" y="1321" width="25" height="24" as="geometry" />
        </mxCell>
        <mxCell id="zjEUBH4HDeHnJ98qzoNN-72" value="H" style="rounded=0;whiteSpace=wrap;html=1;fillColor=#f8cecc;strokeColor=#b85450;fontStyle=1" vertex="1" parent="1">
          <mxGeometry x="1779" y="1321" width="25" height="24" as="geometry" />
        </mxCell>
        <mxCell id="zjEUBH4HDeHnJ98qzoNN-73" value="O" style="rounded=0;whiteSpace=wrap;html=1;fillColor=#f8cecc;strokeColor=#b85450;fontStyle=1" vertex="1" parent="1">
          <mxGeometry x="1804" y="1321" width="25" height="24" as="geometry" />
        </mxCell>
        <mxCell id="zjEUBH4HDeHnJ98qzoNN-74" value="S" style="rounded=0;whiteSpace=wrap;html=1;fillColor=#f8cecc;strokeColor=#b85450;fontStyle=1" vertex="1" parent="1">
          <mxGeometry x="1829" y="1321" width="25" height="24" as="geometry" />
        </mxCell>
        <mxCell id="zjEUBH4HDeHnJ98qzoNN-75" value="T" style="rounded=0;whiteSpace=wrap;html=1;fillColor=#f8cecc;strokeColor=#b85450;fontStyle=1" vertex="1" parent="1">
          <mxGeometry x="1854" y="1321" width="25" height="24" as="geometry" />
        </mxCell>
        <mxCell id="zjEUBH4HDeHnJ98qzoNN-76" value=":" style="rounded=0;whiteSpace=wrap;html=1;fillColor=#f8cecc;strokeColor=#b85450;fontStyle=1" vertex="1" parent="1">
          <mxGeometry x="1879" y="1321" width="25" height="24" as="geometry" />
        </mxCell>
        <mxCell id="zjEUBH4HDeHnJ98qzoNN-77" value="" style="rounded=0;whiteSpace=wrap;html=1;fillColor=#f8cecc;strokeColor=#b85450;fontStyle=1" vertex="1" parent="1">
          <mxGeometry x="1904" y="1321" width="25" height="24" as="geometry" />
        </mxCell>
        <mxCell id="zjEUBH4HDeHnJ98qzoNN-78" value="l" style="rounded=0;whiteSpace=wrap;html=1;fillColor=#f8cecc;strokeColor=#b85450;fontStyle=1" vertex="1" parent="1">
          <mxGeometry x="1929" y="1321" width="25" height="24" as="geometry" />
        </mxCell>
        <mxCell id="zjEUBH4HDeHnJ98qzoNN-79" value="o" style="rounded=0;whiteSpace=wrap;html=1;fillColor=#f8cecc;strokeColor=#b85450;fontStyle=1" vertex="1" parent="1">
          <mxGeometry x="1954" y="1321" width="25" height="24" as="geometry" />
        </mxCell>
        <mxCell id="zjEUBH4HDeHnJ98qzoNN-80" value="c" style="rounded=0;whiteSpace=wrap;html=1;fillColor=#f8cecc;strokeColor=#b85450;fontStyle=1" vertex="1" parent="1">
          <mxGeometry x="1979" y="1321" width="25" height="24" as="geometry" />
        </mxCell>
        <mxCell id="zjEUBH4HDeHnJ98qzoNN-81" value="a" style="rounded=0;whiteSpace=wrap;html=1;fillColor=#f8cecc;strokeColor=#b85450;fontStyle=1" vertex="1" parent="1">
          <mxGeometry x="2004" y="1321" width="25" height="24" as="geometry" />
        </mxCell>
        <mxCell id="zjEUBH4HDeHnJ98qzoNN-82" value="l" style="rounded=0;whiteSpace=wrap;html=1;fillColor=#f8cecc;strokeColor=#b85450;fontStyle=1" vertex="1" parent="1">
          <mxGeometry x="2029" y="1321" width="25" height="24" as="geometry" />
        </mxCell>
        <mxCell id="zjEUBH4HDeHnJ98qzoNN-83" value="" style="rounded=0;whiteSpace=wrap;html=1;" vertex="1" parent="1">
          <mxGeometry x="2054" y="1321" width="25" height="24" as="geometry" />
        </mxCell>
        <mxCell id="zjEUBH4HDeHnJ98qzoNN-84" value="" style="rounded=0;whiteSpace=wrap;html=1;" vertex="1" parent="1">
          <mxGeometry x="2079" y="1321" width="25" height="24" as="geometry" />
        </mxCell>
        <mxCell id="zjEUBH4HDeHnJ98qzoNN-85" value="" style="rounded=0;whiteSpace=wrap;html=1;" vertex="1" parent="1">
          <mxGeometry x="2104" y="1321" width="25" height="24" as="geometry" />
        </mxCell>
        <mxCell id="zjEUBH4HDeHnJ98qzoNN-86" value="" style="rounded=0;whiteSpace=wrap;html=1;" vertex="1" parent="1">
          <mxGeometry x="2129" y="1321" width="25" height="24" as="geometry" />
        </mxCell>
        <mxCell id="zjEUBH4HDeHnJ98qzoNN-87" value="" style="rounded=0;whiteSpace=wrap;html=1;" vertex="1" parent="1">
          <mxGeometry x="2154" y="1321" width="25" height="24" as="geometry" />
        </mxCell>
        <mxCell id="zjEUBH4HDeHnJ98qzoNN-88" value="" style="rounded=0;whiteSpace=wrap;html=1;" vertex="1" parent="1">
          <mxGeometry x="2179" y="1321" width="25" height="24" as="geometry" />
        </mxCell>
        <mxCell id="zjEUBH4HDeHnJ98qzoNN-89" style="edgeStyle=orthogonalEdgeStyle;rounded=0;orthogonalLoop=1;jettySize=auto;html=1;endArrow=block;endFill=1;" edge="1" parent="1" source="zjEUBH4HDeHnJ98qzoNN-90">
          <mxGeometry relative="1" as="geometry">
            <mxPoint x="2068.4999999999995" y="1348.074001736111" as="targetPoint" />
          </mxGeometry>
        </mxCell>
        <mxCell id="zjEUBH4HDeHnJ98qzoNN-90" value="&lt;font style=&quot;font-size: 11px;&quot;&gt;&lt;b&gt;checked_index&lt;/b&gt;&lt;/font&gt;" style="text;html=1;align=center;verticalAlign=middle;resizable=0;points=[];autosize=1;strokeColor=none;fillColor=none;" vertex="1" parent="1">
          <mxGeometry x="2020" y="1375" width="97" height="27" as="geometry" />
        </mxCell>
        <mxCell id="zjEUBH4HDeHnJ98qzoNN-91" style="edgeStyle=orthogonalEdgeStyle;rounded=0;orthogonalLoop=1;jettySize=auto;html=1;endArrow=block;endFill=1;" edge="1" parent="1" source="zjEUBH4HDeHnJ98qzoNN-92">
          <mxGeometry relative="1" as="geometry">
            <mxPoint x="2064" y="1317.2591937029802" as="targetPoint" />
          </mxGeometry>
        </mxCell>
        <mxCell id="zjEUBH4HDeHnJ98qzoNN-92" value="&lt;font style=&quot;font-size: 11px;&quot;&gt;&lt;b&gt;read_index&lt;/b&gt;&lt;/font&gt;" style="text;html=1;align=center;verticalAlign=middle;resizable=0;points=[];autosize=1;strokeColor=none;fillColor=none;" vertex="1" parent="1">
          <mxGeometry x="2025.5" y="1259" width="76" height="27" as="geometry" />
        </mxCell>
        <mxCell id="zjEUBH4HDeHnJ98qzoNN-93" value="" style="rounded=0;whiteSpace=wrap;html=1;" vertex="1" parent="1">
          <mxGeometry x="1704" y="1517" width="25" height="24" as="geometry" />
        </mxCell>
        <mxCell id="zjEUBH4HDeHnJ98qzoNN-94" value="" style="rounded=0;whiteSpace=wrap;html=1;" vertex="1" parent="1">
          <mxGeometry x="1729" y="1517" width="25" height="24" as="geometry" />
        </mxCell>
        <mxCell id="zjEUBH4HDeHnJ98qzoNN-95" value="" style="rounded=0;whiteSpace=wrap;html=1;" vertex="1" parent="1">
          <mxGeometry x="1754" y="1517" width="25" height="24" as="geometry" />
        </mxCell>
        <mxCell id="zjEUBH4HDeHnJ98qzoNN-96" value="H" style="rounded=0;whiteSpace=wrap;html=1;fillColor=#f8cecc;strokeColor=#b85450;fontStyle=1" vertex="1" parent="1">
          <mxGeometry x="1779" y="1517" width="25" height="24" as="geometry" />
        </mxCell>
        <mxCell id="zjEUBH4HDeHnJ98qzoNN-97" value="O" style="rounded=0;whiteSpace=wrap;html=1;fillColor=#f8cecc;strokeColor=#b85450;fontStyle=1" vertex="1" parent="1">
          <mxGeometry x="1804" y="1517" width="25" height="24" as="geometry" />
        </mxCell>
        <mxCell id="zjEUBH4HDeHnJ98qzoNN-98" value="S" style="rounded=0;whiteSpace=wrap;html=1;fillColor=#f8cecc;strokeColor=#b85450;fontStyle=1" vertex="1" parent="1">
          <mxGeometry x="1829" y="1517" width="25" height="24" as="geometry" />
        </mxCell>
        <mxCell id="zjEUBH4HDeHnJ98qzoNN-99" value="T" style="rounded=0;whiteSpace=wrap;html=1;fillColor=#f8cecc;strokeColor=#b85450;fontStyle=1" vertex="1" parent="1">
          <mxGeometry x="1854" y="1517" width="25" height="24" as="geometry" />
        </mxCell>
        <mxCell id="zjEUBH4HDeHnJ98qzoNN-100" value=":" style="rounded=0;whiteSpace=wrap;html=1;fillColor=#f8cecc;strokeColor=#b85450;fontStyle=1" vertex="1" parent="1">
          <mxGeometry x="1879" y="1517" width="25" height="24" as="geometry" />
        </mxCell>
        <mxCell id="zjEUBH4HDeHnJ98qzoNN-101" value="" style="rounded=0;whiteSpace=wrap;html=1;fillColor=#f8cecc;strokeColor=#b85450;fontStyle=1" vertex="1" parent="1">
          <mxGeometry x="1904" y="1517" width="25" height="24" as="geometry" />
        </mxCell>
        <mxCell id="zjEUBH4HDeHnJ98qzoNN-102" value="l" style="rounded=0;whiteSpace=wrap;html=1;fillColor=#f8cecc;strokeColor=#b85450;fontStyle=1" vertex="1" parent="1">
          <mxGeometry x="1929" y="1517" width="25" height="24" as="geometry" />
        </mxCell>
        <mxCell id="zjEUBH4HDeHnJ98qzoNN-103" value="o" style="rounded=0;whiteSpace=wrap;html=1;fillColor=#f8cecc;strokeColor=#b85450;fontStyle=1" vertex="1" parent="1">
          <mxGeometry x="1954" y="1517" width="25" height="24" as="geometry" />
        </mxCell>
        <mxCell id="zjEUBH4HDeHnJ98qzoNN-104" value="c" style="rounded=0;whiteSpace=wrap;html=1;fillColor=#f8cecc;strokeColor=#b85450;fontStyle=1" vertex="1" parent="1">
          <mxGeometry x="1979" y="1517" width="25" height="24" as="geometry" />
        </mxCell>
        <mxCell id="zjEUBH4HDeHnJ98qzoNN-105" value="a" style="rounded=0;whiteSpace=wrap;html=1;fillColor=#f8cecc;strokeColor=#b85450;fontStyle=1" vertex="1" parent="1">
          <mxGeometry x="2004" y="1517" width="25" height="24" as="geometry" />
        </mxCell>
        <mxCell id="zjEUBH4HDeHnJ98qzoNN-106" value="l" style="rounded=0;whiteSpace=wrap;html=1;fillColor=#f8cecc;strokeColor=#b85450;fontStyle=1" vertex="1" parent="1">
          <mxGeometry x="2029" y="1517" width="25" height="24" as="geometry" />
        </mxCell>
        <mxCell id="zjEUBH4HDeHnJ98qzoNN-107" value="h" style="rounded=0;whiteSpace=wrap;html=1;fillColor=#f8cecc;strokeColor=#b85450;fontStyle=1" vertex="1" parent="1">
          <mxGeometry x="2054" y="1517" width="25" height="24" as="geometry" />
        </mxCell>
        <mxCell id="zjEUBH4HDeHnJ98qzoNN-108" value="o" style="rounded=0;whiteSpace=wrap;html=1;fillColor=#f8cecc;strokeColor=#b85450;fontStyle=1" vertex="1" parent="1">
          <mxGeometry x="2079" y="1517" width="25" height="24" as="geometry" />
        </mxCell>
        <mxCell id="zjEUBH4HDeHnJ98qzoNN-109" value="s" style="rounded=0;whiteSpace=wrap;html=1;fillColor=#f8cecc;strokeColor=#b85450;fontStyle=1" vertex="1" parent="1">
          <mxGeometry x="2104" y="1517" width="25" height="24" as="geometry" />
        </mxCell>
        <mxCell id="zjEUBH4HDeHnJ98qzoNN-110" value="t" style="rounded=0;whiteSpace=wrap;html=1;fillColor=#f8cecc;strokeColor=#b85450;fontStyle=1" vertex="1" parent="1">
          <mxGeometry x="2129" y="1517" width="25" height="24" as="geometry" />
        </mxCell>
        <mxCell id="zjEUBH4HDeHnJ98qzoNN-111" value="\r" style="rounded=0;whiteSpace=wrap;html=1;fillColor=#f8cecc;strokeColor=#b85450;fontStyle=1" vertex="1" parent="1">
          <mxGeometry x="2154" y="1517" width="25" height="24" as="geometry" />
        </mxCell>
        <mxCell id="zjEUBH4HDeHnJ98qzoNN-112" value="\n" style="rounded=0;whiteSpace=wrap;html=1;fillColor=#f8cecc;strokeColor=#b85450;fontStyle=1" vertex="1" parent="1">
          <mxGeometry x="2179" y="1517" width="25" height="24" as="geometry" />
        </mxCell>
        <mxCell id="zjEUBH4HDeHnJ98qzoNN-113" style="edgeStyle=orthogonalEdgeStyle;rounded=0;orthogonalLoop=1;jettySize=auto;html=1;endArrow=block;endFill=1;" edge="1" parent="1" source="zjEUBH4HDeHnJ98qzoNN-114">
          <mxGeometry relative="1" as="geometry">
            <mxPoint x="2068.4999999999995" y="1544.074001736111" as="targetPoint" />
          </mxGeometry>
        </mxCell>
        <mxCell id="zjEUBH4HDeHnJ98qzoNN-114" value="&lt;font style=&quot;font-size: 11px;&quot;&gt;&lt;b&gt;checked_index&lt;/b&gt;&lt;/font&gt;" style="text;html=1;align=center;verticalAlign=middle;resizable=0;points=[];autosize=1;strokeColor=none;fillColor=none;" vertex="1" parent="1">
          <mxGeometry x="2020" y="1571" width="97" height="27" as="geometry" />
        </mxCell>
        <mxCell id="zjEUBH4HDeHnJ98qzoNN-125" style="edgeStyle=orthogonalEdgeStyle;rounded=0;orthogonalLoop=1;jettySize=auto;html=1;" edge="1" parent="1" source="zjEUBH4HDeHnJ98qzoNN-116">
          <mxGeometry relative="1" as="geometry">
            <mxPoint x="2338" y="1514.6666350188077" as="targetPoint" />
          </mxGeometry>
        </mxCell>
        <mxCell id="zjEUBH4HDeHnJ98qzoNN-116" value="&lt;font style=&quot;font-size: 11px;&quot;&gt;&lt;b&gt;read_index&lt;/b&gt;&lt;/font&gt;" style="text;html=1;align=center;verticalAlign=middle;resizable=0;points=[];autosize=1;strokeColor=none;fillColor=none;" vertex="1" parent="1">
          <mxGeometry x="2300" y="1458.74" width="76" height="27" as="geometry" />
        </mxCell>
        <mxCell id="zjEUBH4HDeHnJ98qzoNN-117" value="C" style="rounded=0;whiteSpace=wrap;html=1;fillColor=#f8cecc;strokeColor=#b85450;fontStyle=1" vertex="1" parent="1">
          <mxGeometry x="2204" y="1517" width="25" height="24" as="geometry" />
        </mxCell>
        <mxCell id="zjEUBH4HDeHnJ98qzoNN-118" value="o" style="rounded=0;whiteSpace=wrap;html=1;fillColor=#f8cecc;strokeColor=#b85450;fontStyle=1" vertex="1" parent="1">
          <mxGeometry x="2229" y="1517" width="25" height="24" as="geometry" />
        </mxCell>
        <mxCell id="zjEUBH4HDeHnJ98qzoNN-119" value="n" style="rounded=0;whiteSpace=wrap;html=1;fillColor=#f8cecc;strokeColor=#b85450;fontStyle=1" vertex="1" parent="1">
          <mxGeometry x="2254" y="1517" width="25" height="24" as="geometry" />
        </mxCell>
        <mxCell id="zjEUBH4HDeHnJ98qzoNN-120" value="n" style="rounded=0;whiteSpace=wrap;html=1;fillColor=#f8cecc;strokeColor=#b85450;fontStyle=1" vertex="1" parent="1">
          <mxGeometry x="2279" y="1517" width="25" height="24" as="geometry" />
        </mxCell>
        <mxCell id="zjEUBH4HDeHnJ98qzoNN-121" value="e" style="rounded=0;whiteSpace=wrap;html=1;fillColor=#f8cecc;strokeColor=#b85450;fontStyle=1" vertex="1" parent="1">
          <mxGeometry x="2304" y="1517" width="25" height="24" as="geometry" />
        </mxCell>
        <mxCell id="zjEUBH4HDeHnJ98qzoNN-122" value="" style="rounded=0;whiteSpace=wrap;html=1;" vertex="1" parent="1">
          <mxGeometry x="2329" y="1517" width="25" height="24" as="geometry" />
        </mxCell>
        <mxCell id="zjEUBH4HDeHnJ98qzoNN-123" value="" style="rounded=0;whiteSpace=wrap;html=1;" vertex="1" parent="1">
          <mxGeometry x="2354" y="1517" width="25" height="24" as="geometry" />
        </mxCell>
        <mxCell id="zjEUBH4HDeHnJ98qzoNN-124" value="" style="rounded=0;whiteSpace=wrap;html=1;" vertex="1" parent="1">
          <mxGeometry x="2379" y="1517" width="25" height="24" as="geometry" />
        </mxCell>
        <mxCell id="zjEUBH4HDeHnJ98qzoNN-126" value="" style="rounded=0;whiteSpace=wrap;html=1;" vertex="1" parent="1">
          <mxGeometry x="1699" y="1679.26" width="25" height="24" as="geometry" />
        </mxCell>
        <mxCell id="zjEUBH4HDeHnJ98qzoNN-127" value="" style="rounded=0;whiteSpace=wrap;html=1;" vertex="1" parent="1">
          <mxGeometry x="1724" y="1679.26" width="25" height="24" as="geometry" />
        </mxCell>
        <mxCell id="zjEUBH4HDeHnJ98qzoNN-128" value="" style="rounded=0;whiteSpace=wrap;html=1;" vertex="1" parent="1">
          <mxGeometry x="1749" y="1679.26" width="25" height="24" as="geometry" />
        </mxCell>
        <mxCell id="zjEUBH4HDeHnJ98qzoNN-129" value="H" style="rounded=0;whiteSpace=wrap;html=1;fillColor=#f8cecc;strokeColor=#b85450;fontStyle=1" vertex="1" parent="1">
          <mxGeometry x="1774" y="1679.26" width="25" height="24" as="geometry" />
        </mxCell>
        <mxCell id="zjEUBH4HDeHnJ98qzoNN-130" value="O" style="rounded=0;whiteSpace=wrap;html=1;fillColor=#f8cecc;strokeColor=#b85450;fontStyle=1" vertex="1" parent="1">
          <mxGeometry x="1799" y="1679.26" width="25" height="24" as="geometry" />
        </mxCell>
        <mxCell id="zjEUBH4HDeHnJ98qzoNN-131" value="S" style="rounded=0;whiteSpace=wrap;html=1;fillColor=#f8cecc;strokeColor=#b85450;fontStyle=1" vertex="1" parent="1">
          <mxGeometry x="1824" y="1679.26" width="25" height="24" as="geometry" />
        </mxCell>
        <mxCell id="zjEUBH4HDeHnJ98qzoNN-132" value="T" style="rounded=0;whiteSpace=wrap;html=1;fillColor=#f8cecc;strokeColor=#b85450;fontStyle=1" vertex="1" parent="1">
          <mxGeometry x="1849" y="1679.26" width="25" height="24" as="geometry" />
        </mxCell>
        <mxCell id="zjEUBH4HDeHnJ98qzoNN-133" value=":" style="rounded=0;whiteSpace=wrap;html=1;fillColor=#f8cecc;strokeColor=#b85450;fontStyle=1" vertex="1" parent="1">
          <mxGeometry x="1874" y="1679.26" width="25" height="24" as="geometry" />
        </mxCell>
        <mxCell id="zjEUBH4HDeHnJ98qzoNN-134" value="" style="rounded=0;whiteSpace=wrap;html=1;fillColor=#f8cecc;strokeColor=#b85450;fontStyle=1" vertex="1" parent="1">
          <mxGeometry x="1899" y="1679.26" width="25" height="24" as="geometry" />
        </mxCell>
        <mxCell id="zjEUBH4HDeHnJ98qzoNN-135" value="l" style="rounded=0;whiteSpace=wrap;html=1;fillColor=#f8cecc;strokeColor=#b85450;fontStyle=1" vertex="1" parent="1">
          <mxGeometry x="1924" y="1679.26" width="25" height="24" as="geometry" />
        </mxCell>
        <mxCell id="zjEUBH4HDeHnJ98qzoNN-136" value="o" style="rounded=0;whiteSpace=wrap;html=1;fillColor=#f8cecc;strokeColor=#b85450;fontStyle=1" vertex="1" parent="1">
          <mxGeometry x="1949" y="1679.26" width="25" height="24" as="geometry" />
        </mxCell>
        <mxCell id="zjEUBH4HDeHnJ98qzoNN-137" value="c" style="rounded=0;whiteSpace=wrap;html=1;fillColor=#f8cecc;strokeColor=#b85450;fontStyle=1" vertex="1" parent="1">
          <mxGeometry x="1974" y="1679.26" width="25" height="24" as="geometry" />
        </mxCell>
        <mxCell id="zjEUBH4HDeHnJ98qzoNN-138" value="a" style="rounded=0;whiteSpace=wrap;html=1;fillColor=#f8cecc;strokeColor=#b85450;fontStyle=1" vertex="1" parent="1">
          <mxGeometry x="1999" y="1679.26" width="25" height="24" as="geometry" />
        </mxCell>
        <mxCell id="zjEUBH4HDeHnJ98qzoNN-139" value="l" style="rounded=0;whiteSpace=wrap;html=1;fillColor=#f8cecc;strokeColor=#b85450;fontStyle=1" vertex="1" parent="1">
          <mxGeometry x="2024" y="1679.26" width="25" height="24" as="geometry" />
        </mxCell>
        <mxCell id="zjEUBH4HDeHnJ98qzoNN-140" value="h" style="rounded=0;whiteSpace=wrap;html=1;fillColor=#f8cecc;strokeColor=#b85450;fontStyle=1" vertex="1" parent="1">
          <mxGeometry x="2049" y="1679.26" width="25" height="24" as="geometry" />
        </mxCell>
        <mxCell id="zjEUBH4HDeHnJ98qzoNN-141" value="o" style="rounded=0;whiteSpace=wrap;html=1;fillColor=#f8cecc;strokeColor=#b85450;fontStyle=1" vertex="1" parent="1">
          <mxGeometry x="2074" y="1679.26" width="25" height="24" as="geometry" />
        </mxCell>
        <mxCell id="zjEUBH4HDeHnJ98qzoNN-142" value="s" style="rounded=0;whiteSpace=wrap;html=1;fillColor=#f8cecc;strokeColor=#b85450;fontStyle=1" vertex="1" parent="1">
          <mxGeometry x="2099" y="1679.26" width="25" height="24" as="geometry" />
        </mxCell>
        <mxCell id="zjEUBH4HDeHnJ98qzoNN-143" value="t" style="rounded=0;whiteSpace=wrap;html=1;fillColor=#f8cecc;strokeColor=#b85450;fontStyle=1" vertex="1" parent="1">
          <mxGeometry x="2124" y="1679.26" width="25" height="24" as="geometry" />
        </mxCell>
        <mxCell id="zjEUBH4HDeHnJ98qzoNN-144" value="\r" style="rounded=0;whiteSpace=wrap;html=1;fillColor=#f8cecc;strokeColor=#b85450;fontStyle=1" vertex="1" parent="1">
          <mxGeometry x="2149" y="1679.26" width="25" height="24" as="geometry" />
        </mxCell>
        <mxCell id="zjEUBH4HDeHnJ98qzoNN-145" value="\n" style="rounded=0;whiteSpace=wrap;html=1;fillColor=#f8cecc;strokeColor=#b85450;fontStyle=1" vertex="1" parent="1">
          <mxGeometry x="2174" y="1679.26" width="25" height="24" as="geometry" />
        </mxCell>
        <mxCell id="zjEUBH4HDeHnJ98qzoNN-146" style="edgeStyle=orthogonalEdgeStyle;rounded=0;orthogonalLoop=1;jettySize=auto;html=1;endArrow=block;endFill=1;" edge="1" parent="1" source="zjEUBH4HDeHnJ98qzoNN-147">
          <mxGeometry relative="1" as="geometry">
            <mxPoint x="2211.4999999999995" y="1708.0040017361111" as="targetPoint" />
          </mxGeometry>
        </mxCell>
        <mxCell id="zjEUBH4HDeHnJ98qzoNN-147" value="&lt;font style=&quot;font-size: 11px;&quot;&gt;&lt;b&gt;checked_index&lt;/b&gt;&lt;/font&gt;" style="text;html=1;align=center;verticalAlign=middle;resizable=0;points=[];autosize=1;strokeColor=none;fillColor=none;" vertex="1" parent="1">
          <mxGeometry x="2163" y="1734.93" width="97" height="27" as="geometry" />
        </mxCell>
        <mxCell id="zjEUBH4HDeHnJ98qzoNN-148" style="edgeStyle=orthogonalEdgeStyle;rounded=0;orthogonalLoop=1;jettySize=auto;html=1;" edge="1" parent="1" source="zjEUBH4HDeHnJ98qzoNN-149">
          <mxGeometry relative="1" as="geometry">
            <mxPoint x="2333" y="1676.9266350188077" as="targetPoint" />
          </mxGeometry>
        </mxCell>
        <mxCell id="zjEUBH4HDeHnJ98qzoNN-149" value="&lt;font style=&quot;font-size: 11px;&quot;&gt;&lt;b&gt;read_index&lt;/b&gt;&lt;/font&gt;" style="text;html=1;align=center;verticalAlign=middle;resizable=0;points=[];autosize=1;strokeColor=none;fillColor=none;" vertex="1" parent="1">
          <mxGeometry x="2295" y="1621" width="76" height="27" as="geometry" />
        </mxCell>
        <mxCell id="zjEUBH4HDeHnJ98qzoNN-150" value="C" style="rounded=0;whiteSpace=wrap;html=1;fillColor=#f8cecc;strokeColor=#b85450;fontStyle=1" vertex="1" parent="1">
          <mxGeometry x="2199" y="1679.26" width="25" height="24" as="geometry" />
        </mxCell>
        <mxCell id="zjEUBH4HDeHnJ98qzoNN-151" value="o" style="rounded=0;whiteSpace=wrap;html=1;fillColor=#f8cecc;strokeColor=#b85450;fontStyle=1" vertex="1" parent="1">
          <mxGeometry x="2224" y="1679.26" width="25" height="24" as="geometry" />
        </mxCell>
        <mxCell id="zjEUBH4HDeHnJ98qzoNN-152" value="n" style="rounded=0;whiteSpace=wrap;html=1;fillColor=#f8cecc;strokeColor=#b85450;fontStyle=1" vertex="1" parent="1">
          <mxGeometry x="2249" y="1679.26" width="25" height="24" as="geometry" />
        </mxCell>
        <mxCell id="zjEUBH4HDeHnJ98qzoNN-153" value="n" style="rounded=0;whiteSpace=wrap;html=1;fillColor=#f8cecc;strokeColor=#b85450;fontStyle=1" vertex="1" parent="1">
          <mxGeometry x="2274" y="1679.26" width="25" height="24" as="geometry" />
        </mxCell>
        <mxCell id="zjEUBH4HDeHnJ98qzoNN-154" value="e" style="rounded=0;whiteSpace=wrap;html=1;fillColor=#f8cecc;strokeColor=#b85450;fontStyle=1" vertex="1" parent="1">
          <mxGeometry x="2299" y="1679.26" width="25" height="24" as="geometry" />
        </mxCell>
        <mxCell id="zjEUBH4HDeHnJ98qzoNN-155" value="" style="rounded=0;whiteSpace=wrap;html=1;" vertex="1" parent="1">
          <mxGeometry x="2324" y="1679.26" width="25" height="24" as="geometry" />
        </mxCell>
        <mxCell id="zjEUBH4HDeHnJ98qzoNN-156" value="" style="rounded=0;whiteSpace=wrap;html=1;" vertex="1" parent="1">
          <mxGeometry x="2349" y="1679.26" width="25" height="24" as="geometry" />
        </mxCell>
        <mxCell id="zjEUBH4HDeHnJ98qzoNN-157" value="" style="rounded=0;whiteSpace=wrap;html=1;" vertex="1" parent="1">
          <mxGeometry x="2374" y="1679.26" width="25" height="24" as="geometry" />
        </mxCell>
      </root>
    </mxGraphModel>
  </diagram>
</mxfile>
